Czarin-Medium.ufo
<glyph name="exclam" format="2">
  <advance width="257"/>
  <unicode hex="0021"/>
  <outline>
    <contour>
      <point x="82" y="152" type="curve"/>
      <point x="170" y="202" type="line"/>
      <point x="168" y="339"/>
      <point x="169" y="536"/>
      <point x="173" y="703" type="curve"/>
      <point x="83" y="653" type="line"/>
      <point x="86" y="487"/>
      <point x="85" y="318"/>
    </contour>
    <component base="period" xOffset="30"/>
  </outline>
</glyph>
<glyph name="numbersign" format="2">
  <advance width="616"/>
  <unicode hex="0023"/>
  <outline>
    <contour>
      <point x="279" y="0" type="curve"/>
      <point x="346" y="0" type="line"/>
      <point x="417" y="272"/>
      <point x="451" y="368"/>
      <point x="536" y="636" type="curve"/>
      <point x="465" y="636" type="line"/>
      <point x="390" y="364"/>
      <point x="364" y="268"/>
    </contour>
    <contour>
      <point x="30" y="185" type="line"/>
      <point x="276" y="193" type="line"/>
      <point x="521" y="189" type="line"/>
      <point x="540" y="247" type="line"/>
      <point x="278" y="243" type="line"/>
      <point x="49" y="241" type="line"/>
    </contour>
    <contour>
      <point x="81" y="0" type="curve"/>
      <point x="148" y="0" type="line"/>
      <point x="219" y="272"/>
      <point x="254" y="368"/>
      <point x="339" y="636" type="curve"/>
      <point x="268" y="636" type="line"/>
      <point x="193" y="364"/>
      <point x="167" y="268"/>
    </contour>
    <contour>
      <point x="76" y="391" type="line"/>
      <point x="322" y="399" type="line"/>
      <point x="567" y="395" type="line"/>
      <point x="586" y="453" type="line"/>
      <point x="323" y="449" type="line"/>
      <point x="94" y="447" type="line"/>
    </contour>
  </outline>
</glyph>
<glyph name="dollar" format="2">
  <advance width="472"/>
  <unicode hex="0024"/>
  <outline>
    <contour>
      <point x="227" y="-10" type="curve" smooth="yes"/>
      <point x="282" y="-10"/>
      <point x="427" y="92"/>
      <point x="427" y="195" type="curve" smooth="yes"/>
      <point x="427" y="290"/>
      <point x="359" y="322"/>
      <point x="265" y="379" type="curve" smooth="yes"/>
      <point x="198" y="418"/>
      <point x="145" y="440"/>
      <point x="145" y="507" type="curve" smooth="yes"/>
      <point x="145" y="547"/>
      <point x="168" y="579"/>
      <point x="215" y="579" type="curve" smooth="yes"/>
      <point x="267" y="579"/>
      <point x="311" y="542"/>
      <point x="341" y="503" type="curve"/>
      <point x="412" y="577" type="line"/>
      <point x="361" y="613"/>
      <point x="308" y="646"/>
      <point x="263" y="646" type="curve" smooth="yes"/>
      <point x="244" y="646"/>
      <point x="222" y="638"/>
      <point x="203" y="628" type="curve" smooth="yes"/>
      <point x="145" y="598"/>
      <point x="63" y="546"/>
      <point x="63" y="470" type="curve" smooth="yes"/>
      <point x="63" y="389"/>
      <point x="123" y="349"/>
      <point x="213" y="294" type="curve" smooth="yes"/>
      <point x="300" y="241"/>
      <point x="342" y="206"/>
      <point x="342" y="157" type="curve" smooth="yes"/>
      <point x="342" y="84"/>
      <point x="313" y="54"/>
      <point x="266" y="54" type="curve" smooth="yes"/>
      <point x="209" y="54"/>
      <point x="157" y="92"/>
      <point x="112" y="134" type="curve"/>
      <point x="45" y="65" type="line"/>
      <point x="97" y="21"/>
      <point x="167" y="-10"/>
    </contour>
    <contour>
      <point x="222" y="-107" type="curve"/>
      <point x="278" y="-81" type="line"/>
      <point x="275" y="-50"/>
      <point x="272" y="102"/>
      <point x="272" y="182" type="curve" smooth="yes"/>
      <point x="272" y="459" type="line" smooth="yes"/>
      <point x="272" y="505"/>
      <point x="272" y="663"/>
      <point x="275" y="742" type="curve"/>
      <point x="217" y="725" type="line"/>
      <point x="219" y="648"/>
      <point x="223" y="506"/>
      <point x="223" y="430" type="curve" smooth="yes"/>
      <point x="223" y="110" type="line" smooth="yes"/>
      <point x="223" y="47"/>
      <point x="224" y="-40"/>
    </contour>
  </outline>
</glyph>
<glyph name="percent" format="2">
  <advance width="614"/>
  <unicode hex="0025"/>
  <outline>
    <contour>
      <point x="78" y="2" type="line"/>
      <point x="133" y="2" type="line"/>
      <point x="533" y="632" type="line"/>
      <point x="469" y="632" type="line"/>
    </contour>
    <component base="degree" xOffset="20"/>
    <component base="degree" xOffset="282" yOffset="-401"/>
  </outline>
</glyph>
<glyph name="ampersand" format="2">
  <advance width="518"/>
  <unicode hex="0026"/>
  <outline>
    <contour>
      <point x="329" y="72" type="curve"/>
      <point x="410" y="-18" type="line"/>
      <point x="493" y="46" type="line"/>
      <point x="461" y="75"/>
      <point x="417" y="117"/>
      <point x="394" y="145" type="curve"/>
      <point x="441" y="193"/>
      <point x="486" y="280"/>
      <point x="508" y="355" type="curve"/>
      <point x="498" y="370" type="line"/>
      <point x="419" y="330" type="line"/>
      <point x="424" y="293"/>
      <point x="389" y="206"/>
      <point x="371" y="177" type="curve"/>
      <point x="353" y="197"/>
      <point x="272" y="302"/>
      <point x="260" y="339" type="curve"/>
      <point x="325" y="400"/>
      <point x="393" y="481"/>
      <point x="393" y="539" type="curve" smooth="yes"/>
      <point x="393" y="606"/>
      <point x="333" y="664"/>
      <point x="279" y="664" type="curve" smooth="yes"/>
      <point x="223" y="664"/>
      <point x="99" y="555"/>
      <point x="99" y="485" type="curve" smooth="yes"/>
      <point x="99" y="420"/>
      <point x="135" y="366"/>
      <point x="167" y="307" type="curve"/>
      <point x="145" y="287"/>
      <point x="50" y="225"/>
      <point x="50" y="150" type="curve" smooth="yes"/>
      <point x="50" y="78"/>
      <point x="116" y="-9"/>
      <point x="192" y="-9" type="curve" smooth="yes"/>
      <point x="242" y="-9"/>
      <point x="291" y="35"/>
    </contour>
    <contour>
      <point x="246" y="75" type="curve" smooth="yes"/>
      <point x="193" y="75"/>
      <point x="136" y="140"/>
      <point x="136" y="189" type="curve" smooth="yes"/>
      <point x="136" y="231"/>
      <point x="163" y="256"/>
      <point x="186" y="269" type="curve"/>
      <point x="219" y="211"/>
      <point x="277" y="134"/>
      <point x="306" y="100" type="curve"/>
      <point x="284" y="79"/>
      <point x="266" y="75"/>
    </contour>
    <contour>
      <point x="240" y="374" type="curve"/>
      <point x="208" y="427"/>
      <point x="187" y="483"/>
      <point x="187" y="528" type="curve" smooth="yes"/>
      <point x="187" y="573"/>
      <point x="208" y="594"/>
      <point x="230" y="594" type="curve" smooth="yes"/>
      <point x="261" y="594"/>
      <point x="315" y="540"/>
      <point x="315" y="494" type="curve" smooth="yes"/>
      <point x="315" y="448"/>
      <point x="275" y="398"/>
    </contour>
  </outline>
</glyph>
<glyph name="quotesingle" format="2">
  <advance width="197"/>
  <unicode hex="0027"/>
  <outline>
    <contour>
      <point x="62" y="523" type="curve"/>
      <point x="79" y="511" type="line"/>
      <point x="131" y="560"/>
      <point x="160" y="598"/>
      <point x="160" y="631" type="curve" smooth="yes"/>
      <point x="160" y="660"/>
      <point x="141" y="685"/>
      <point x="100" y="711" type="curve"/>
      <point x="36" y="659" type="line"/>
      <point x="69" y="647"/>
      <point x="94" y="629"/>
      <point x="94" y="600" type="curve" smooth="yes"/>
      <point x="94" y="579"/>
      <point x="84" y="554"/>
    </contour>
  </outline>
</glyph>
<glyph name="parenright" format="2">
  <advance width="250"/>
  <unicode hex="0029"/>
  <outline>
    <contour>
      <point x="0" y="-203" type="curve"/>
      <point x="45" y="-203" type="line"/>
      <point x="129" y="-73"/>
      <point x="200" y="113"/>
      <point x="200" y="306" type="curve" smooth="yes"/>
      <point x="200" y="437"/>
      <point x="167" y="626"/>
      <point x="92" y="743" type="curve"/>
      <point x="12" y="726" type="line"/>
      <point x="96" y="626"/>
      <point x="129" y="399"/>
      <point x="129" y="267" type="curve" smooth="yes"/>
      <point x="129" y="84"/>
      <point x="66" y="-86"/>
    </contour>
  </outline>
</glyph>
<glyph name="asterisk" format="2">
  <advance width="419"/>
  <unicode hex="002A"/>
  <outline>
    <contour>
      <point x="138" y="363" type="line"/>
      <point x="210" y="500" type="line"/>
      <point x="282" y="363" type="line"/>
      <point x="351" y="417" type="line"/>
      <point x="249" y="534" type="line"/>
      <point x="369" y="546" type="line"/>
      <point x="348" y="628" type="line"/>
      <point x="237" y="560" type="line"/>
      <point x="256" y="709" type="line"/>
      <point x="165" y="709" type="line"/>
      <point x="185" y="561" type="line"/>
      <point x="72" y="628" type="line"/>
      <point x="50" y="546" type="line"/>
      <point x="173" y="534" type="line"/>
      <point x="68" y="413" type="line"/>
    </contour>
  </outline>
</glyph>
<glyph name="plus" format="2">
  <advance width="381"/>
  <unicode hex="002B"/>
  <outline>
    <contour>
      <point x="146" y="135" type="curve"/>
      <point x="223" y="162" type="line"/>
      <point x="221" y="206"/>
      <point x="219" y="251"/>
      <point x="219" y="295" type="curve"/>
      <point x="294" y="294" type="line"/>
      <point x="361" y="369" type="line"/>
      <point x="222" y="364" type="line"/>
      <point x="222" y="412"/>
      <point x="224" y="460"/>
      <point x="226" y="508" type="curve"/>
      <point x="144" y="475" type="line"/>
      <point x="147" y="438"/>
      <point x="148" y="401"/>
      <point x="147" y="364" type="curve"/>
      <point x="122" y="363"/>
      <point x="96" y="365"/>
      <point x="71" y="368" type="curve"/>
      <point x="20" y="298" type="line"/>
      <point x="150" y="297" type="line"/>
      <point x="150" y="243"/>
      <point x="148" y="189"/>
    </contour>
  </outline>
</glyph>
<glyph name="comma" format="2">
  <advance width="197"/>
  <unicode hex="002C"/>
  <note>
No source (Offenbach)
</note>
  <outline>
    <contour>
      <point x="0" y="-140" type="line"/>
      <point x="86" y="-119" type="line"/>
      <point x="179" y="101" type="line"/>
      <point x="81" y="88" type="line"/>
    </contour>
  </outline>
</glyph>
<glyph name="hyphen" format="2">
  <advance width="250"/>
  <unicode hex="002D"/>
  <outline>
    <contour>
      <point x="62" y="247" type="curve"/>
      <point x="20" y="178" type="line"/>
      <point x="75" y="182"/>
      <point x="132" y="183"/>
      <point x="187" y="182" type="curve"/>
      <point x="230" y="251" type="line"/>
      <point x="175" y="247"/>
      <point x="117" y="246"/>
    </contour>
  </outline>
</glyph>
<glyph name="period" format="2">
  <advance width="197"/>
  <unicode hex="002E"/>
  <outline>
    <contour>
      <point x="95" y="-32" type="line"/>
      <point x="167" y="36" type="line"/>
      <point x="105" y="111" type="line"/>
      <point x="30" y="42" type="line"/>
    </contour>
  </outline>
</glyph>
<glyph name="slash" format="2">
  <advance width="399"/>
  <unicode hex="002F"/>
  <outline>
    <contour>
      <point x="0" y="-168" type="curve"/>
      <point x="60" y="-168" type="line"/>
      <point x="161" y="141"/>
      <point x="279" y="450"/>
      <point x="399" y="759" type="curve"/>
      <point x="312" y="759" type="line"/>
      <point x="211" y="450"/>
      <point x="108" y="141"/>
    </contour>
  </outline>
</glyph>
<glyph name="zero" format="2">
  <advance width="510"/>
  <unicode hex="0030"/>
  <guideline x="358" y="0" angle="0"/>
  <guideline x="310" y="634" angle="0"/>
  <outline>
    <contour>
      <point x="249" y="-6" type="curve" smooth="yes"/>
      <point x="373" y="-6"/>
      <point x="470" y="188"/>
      <point x="470" y="339" type="curve" smooth="yes"/>
      <point x="470" y="516"/>
      <point x="379" y="645"/>
      <point x="266" y="645" type="curve" smooth="yes"/>
      <point x="150" y="645"/>
      <point x="40" y="486"/>
      <point x="40" y="311" type="curve" smooth="yes"/>
      <point x="40" y="152"/>
      <point x="155" y="-6"/>
    </contour>
    <contour>
      <point x="303" y="70" type="curve" smooth="yes"/>
      <point x="221" y="70"/>
      <point x="113" y="210"/>
      <point x="113" y="385" type="curve" smooth="yes"/>
      <point x="113" y="450"/>
      <point x="137" y="579"/>
      <point x="209" y="579" type="curve" smooth="yes"/>
      <point x="309" y="579"/>
      <point x="386" y="434"/>
      <point x="386" y="262" type="curve" smooth="yes"/>
      <point x="386" y="125"/>
      <point x="355" y="70"/>
    </contour>
  </outline>
</glyph>
<glyph name="one" format="2">
  <advance width="292"/>
  <unicode hex="0031"/>
  <outline>
    <contour>
      <point x="121" y="-11" type="curve"/>
      <point x="222" y="5" type="line"/>
      <point x="220" y="34"/>
      <point x="217" y="63"/>
      <point x="216" y="102" type="curve" smooth="yes"/>
      <point x="212" y="288"/>
      <point x="208" y="441"/>
      <point x="217" y="626" type="curve"/>
      <point x="208" y="644" type="line"/>
      <point x="30" y="540" type="line"/>
      <point x="44" y="510" type="line"/>
      <point x="122" y="548" type="line"/>
      <point x="126" y="346"/>
      <point x="122" y="216"/>
    </contour>
  </outline>
</glyph>
<glyph name="two" format="2">
  <advance width="421"/>
  <unicode hex="0032"/>
  <guideline x="318" y="634" angle="0"/>
  <outline>
    <contour>
      <point x="285" y="366" type="curve" smooth="yes"/>
      <point x="78" y="-2" type="line"/>
      <point x="167" y="1"/>
      <point x="263" y="1"/>
      <point x="346" y="-2" type="curve"/>
      <point x="411" y="103" type="line"/>
      <point x="175" y="103" type="line"/>
      <point x="311" y="325"/>
      <point x="401" y="411"/>
      <point x="401" y="508" type="curve" smooth="yes"/>
      <point x="401" y="606"/>
      <point x="307" y="645"/>
      <point x="250" y="645" type="curve" smooth="yes"/>
      <point x="225" y="645"/>
      <point x="191" y="626"/>
      <point x="149" y="589" type="curve" smooth="yes"/>
      <point x="106" y="552"/>
      <point x="50" y="509"/>
      <point x="50" y="462" type="curve" smooth="yes"/>
      <point x="50" y="377"/>
      <point x="108" y="308"/>
      <point x="163" y="284" type="curve"/>
      <point x="226" y="357" type="line"/>
      <point x="157" y="397"/>
      <point x="127" y="444"/>
      <point x="127" y="498" type="curve" smooth="yes"/>
      <point x="127" y="534"/>
      <point x="150" y="567"/>
      <point x="195" y="567" type="curve" smooth="yes"/>
      <point x="253" y="567"/>
      <point x="319" y="531"/>
      <point x="319" y="465" type="curve" smooth="yes"/>
      <point x="319" y="439"/>
      <point x="307" y="405"/>
    </contour>
  </outline>
</glyph>
<glyph name="three" format="2">
  <advance width="375"/>
  <unicode hex="0033"/>
  <outline>
    <contour>
      <point x="163" y="-12" type="curve" smooth="yes"/>
      <point x="238" y="-12"/>
      <point x="355" y="109"/>
      <point x="355" y="220" type="curve" smooth="yes"/>
      <point x="355" y="301"/>
      <point x="293" y="349"/>
      <point x="238" y="364" type="curve"/>
      <point x="295" y="403"/>
      <point x="337" y="451"/>
      <point x="337" y="515" type="curve" smooth="yes"/>
      <point x="337" y="603"/>
      <point x="256" y="644"/>
      <point x="195" y="644" type="curve" smooth="yes"/>
      <point x="132" y="644"/>
      <point x="68" y="599"/>
      <point x="39" y="541" type="curve"/>
      <point x="68" y="524" type="line"/>
      <point x="88" y="559"/>
      <point x="124" y="574"/>
      <point x="156" y="574" type="curve" smooth="yes"/>
      <point x="202" y="574"/>
      <point x="263" y="544"/>
      <point x="263" y="473" type="curve" smooth="yes"/>
      <point x="263" y="383"/>
      <point x="164" y="364"/>
      <point x="111" y="380" type="curve"/>
      <point x="95" y="286" type="line"/>
      <point x="112" y="290"/>
      <point x="128" y="292"/>
      <point x="144" y="292" type="curve" smooth="yes"/>
      <point x="228" y="292"/>
      <point x="287" y="235"/>
      <point x="287" y="155" type="curve" smooth="yes"/>
      <point x="287" y="93"/>
      <point x="256" y="65"/>
      <point x="203" y="65" type="curve" smooth="yes"/>
      <point x="136" y="65"/>
      <point x="107" y="110"/>
      <point x="74" y="152" type="curve"/>
      <point x="20" y="68" type="line"/>
      <point x="55" y="26"/>
      <point x="121" y="-12"/>
    </contour>
  </outline>
</glyph>
<glyph name="four" format="2">
  <advance width="439"/>
  <unicode hex="0034"/>
  <outline>
    <contour>
      <point x="235" y="-24" type="curve"/>
      <point x="326" y="18" type="line"/>
      <point x="322" y="85"/>
      <point x="321" y="134"/>
      <point x="322" y="187" type="curve"/>
      <point x="355" y="188"/>
      <point x="374" y="186"/>
      <point x="397" y="183" type="curve"/>
      <point x="429" y="269" type="line"/>
      <point x="319" y="262" type="line"/>
      <point x="320" y="476"/>
      <point x="319" y="436"/>
      <point x="323" y="650" type="curve"/>
      <point x="220" y="626" type="line"/>
      <point x="143" y="451"/>
      <point x="81" y="333"/>
      <point x="10" y="211" type="curve"/>
      <point x="10" y="188" type="line"/>
      <point x="236" y="188" type="line"/>
      <point x="237" y="117"/>
      <point x="236" y="47"/>
    </contour>
    <contour>
      <point x="88" y="264" type="line"/>
      <point x="228" y="545" type="line"/>
      <point x="232" y="264" type="line"/>
    </contour>
  </outline>
</glyph>
<glyph name="five" format="2">
  <advance width="372"/>
  <unicode hex="0035"/>
  <outline>
    <contour>
      <point x="160" y="-3" type="curve" smooth="yes"/>
      <point x="252" y="-3"/>
      <point x="355" y="104"/>
      <point x="355" y="213" type="curve" smooth="yes"/>
      <point x="355" y="317"/>
      <point x="276" y="377"/>
      <point x="189" y="377" type="curve" smooth="yes"/>
      <point x="169" y="377"/>
      <point x="144" y="373"/>
      <point x="124" y="365" type="curve"/>
      <point x="127" y="542" type="line"/>
      <point x="294" y="542" type="line"/>
      <point x="357" y="640" type="line"/>
      <point x="278" y="635"/>
      <point x="179" y="635"/>
      <point x="121" y="636" type="curve"/>
      <point x="75" y="584" type="line"/>
      <point x="69" y="267" type="line"/>
      <point x="91" y="278"/>
      <point x="116" y="288"/>
      <point x="151" y="288" type="curve" smooth="yes"/>
      <point x="231" y="288"/>
      <point x="284" y="221"/>
      <point x="284" y="152" type="curve" smooth="yes"/>
      <point x="284" y="100"/>
      <point x="255" y="58"/>
      <point x="213" y="58" type="curve" smooth="yes"/>
      <point x="156" y="58"/>
      <point x="108" y="104"/>
      <point x="81" y="133" type="curve"/>
      <point x="30" y="54" type="line"/>
      <point x="51" y="37"/>
      <point x="87" y="-3"/>
    </contour>
  </outline>
</glyph>
<glyph name="six" format="2">
  <advance width="459"/>
  <unicode hex="0036"/>
  <outline>
    <contour>
      <point x="172" y="-8" type="curve" smooth="yes"/>
      <point x="251" y="-8"/>
      <point x="439" y="85"/>
      <point x="439" y="219" type="curve" smooth="yes"/>
      <point x="439" y="336"/>
      <point x="339" y="420"/>
      <point x="275" y="420" type="curve" smooth="yes"/>
      <point x="235" y="420"/>
      <point x="195" y="405"/>
      <point x="157" y="384" type="curve"/>
      <point x="343" y="646" type="line"/>
      <point x="251" y="646" type="line"/>
      <point x="216" y="566"/>
      <point x="128" y="403"/>
      <point x="52" y="283" type="curve" smooth="yes"/>
      <point x="33" y="250"/>
      <point x="20" y="209"/>
      <point x="20" y="172" type="curve" smooth="yes"/>
      <point x="20" y="85"/>
      <point x="94" y="-8"/>
    </contour>
    <contour>
      <point x="257" y="62" type="curve" smooth="yes"/>
      <point x="183" y="62"/>
      <point x="98" y="121"/>
      <point x="98" y="241" type="curve" smooth="yes"/>
      <point x="98" y="305"/>
      <point x="134" y="359"/>
      <point x="193" y="359" type="curve" smooth="yes"/>
      <point x="279" y="359"/>
      <point x="344" y="270"/>
      <point x="344" y="181" type="curve" smooth="yes"/>
      <point x="344" y="92"/>
      <point x="309" y="62"/>
    </contour>
  </outline>
</glyph>
<glyph name="seven" format="2">
  <advance width="361"/>
  <unicode hex="0037"/>
  <outline>
    <contour>
      <point x="25" y="0" type="curve"/>
      <point x="119" y="1" type="line"/>
      <point x="171" y="158"/>
      <point x="262" y="400"/>
      <point x="361" y="638" type="curve"/>
      <point x="360" y="639" type="line"/>
      <point x="266" y="637"/>
      <point x="143" y="638"/>
      <point x="79" y="645" type="curve"/>
      <point x="20" y="532" type="line"/>
      <point x="53" y="538"/>
      <point x="96" y="541"/>
      <point x="178" y="541" type="curve" smooth="yes"/>
      <point x="284" y="541" type="line"/>
      <point x="203" y="356"/>
      <point x="115" y="181"/>
    </contour>
  </outline>
</glyph>
<glyph name="eight" format="2">
  <advance width="460"/>
  <unicode hex="0038"/>
  <outline>
    <contour>
      <point x="202" y="-5" type="curve" smooth="yes"/>
      <point x="276" y="-5"/>
      <point x="420" y="83"/>
      <point x="420" y="191" type="curve" smooth="yes"/>
      <point x="420" y="285"/>
      <point x="347" y="333"/>
      <point x="301" y="352" type="curve"/>
      <point x="337" y="365"/>
      <point x="404" y="423"/>
      <point x="404" y="500" type="curve" smooth="yes"/>
      <point x="404" y="584"/>
      <point x="321" y="646"/>
      <point x="238" y="646" type="curve" smooth="yes"/>
      <point x="179" y="646"/>
      <point x="61" y="532"/>
      <point x="61" y="457" type="curve" smooth="yes"/>
      <point x="61" y="398"/>
      <point x="91" y="327"/>
      <point x="174" y="299" type="curve"/>
      <point x="129" y="294"/>
      <point x="50" y="218"/>
      <point x="50" y="148" type="curve" smooth="yes"/>
      <point x="50" y="42"/>
      <point x="149" y="-5"/>
    </contour>
    <contour>
      <point x="286" y="56" type="curve" smooth="yes"/>
      <point x="202" y="56"/>
      <point x="126" y="126"/>
      <point x="126" y="192" type="curve" smooth="yes"/>
      <point x="126" y="258"/>
      <point x="166" y="284"/>
      <point x="215" y="284" type="curve" smooth="yes"/>
      <point x="281" y="284"/>
      <point x="342" y="214"/>
      <point x="342" y="139" type="curve" smooth="yes"/>
      <point x="342" y="97"/>
      <point x="325" y="56"/>
    </contour>
    <contour>
      <point x="275" y="368" type="curve" smooth="yes"/>
      <point x="220" y="368"/>
      <point x="139" y="424"/>
      <point x="139" y="501" type="curve" smooth="yes"/>
      <point x="139" y="548"/>
      <point x="156" y="583"/>
      <point x="197" y="583" type="curve" smooth="yes"/>
      <point x="270" y="583"/>
      <point x="333" y="518"/>
      <point x="333" y="452" type="curve" smooth="yes"/>
      <point x="333" y="408"/>
      <point x="309" y="368"/>
    </contour>
  </outline>
</glyph>
<glyph name="less" format="2">
  <advance width="381"/>
  <unicode hex="003C"/>
  <outline>
    <contour>
      <point x="343" y="468" type="curve"/>
      <point x="291" y="529" type="line"/>
      <point x="239" y="484"/>
      <point x="80" y="369"/>
      <point x="15" y="327" type="curve"/>
      <point x="90" y="278"/>
      <point x="241" y="182"/>
      <point x="293" y="131" type="curve"/>
      <point x="345" y="191" type="line"/>
      <point x="280" y="230"/>
      <point x="193" y="287"/>
      <point x="133" y="333" type="curve"/>
      <point x="178" y="363"/>
      <point x="267" y="426"/>
    </contour>
  </outline>
</glyph>
<glyph name="greater" format="2">
  <advance width="381"/>
  <unicode hex="003E"/>
  <outline>
    <contour>
      <point x="90" y="529" type="curve"/>
      <point x="38" y="468" type="line"/>
      <point x="114" y="426"/>
      <point x="203" y="363"/>
      <point x="248" y="333" type="curve"/>
      <point x="188" y="287"/>
      <point x="101" y="230"/>
      <point x="36" y="191" type="curve"/>
      <point x="88" y="131" type="line"/>
      <point x="140" y="182"/>
      <point x="291" y="278"/>
      <point x="366" y="327" type="curve"/>
      <point x="301" y="369"/>
      <point x="142" y="484"/>
    </contour>
  </outline>
</glyph>
<glyph name="question" format="2">
  <advance width="306"/>
  <unicode hex="003F"/>
  <outline>
    <contour>
      <point x="122" y="133" type="curve"/>
      <point x="200" y="198" type="line"/>
      <point x="171" y="232"/>
      <point x="154" y="251"/>
      <point x="154" y="283" type="curve" smooth="yes"/>
      <point x="154" y="316"/>
      <point x="169" y="349"/>
      <point x="205" y="397" type="curve" smooth="yes"/>
      <point x="248" y="455"/>
      <point x="276" y="478"/>
      <point x="276" y="529" type="curve" smooth="yes"/>
      <point x="276" y="621"/>
      <point x="184" y="658"/>
      <point x="125" y="675" type="curve"/>
      <point x="50" y="603" type="line"/>
      <point x="50" y="583" type="line"/>
      <point x="72" y="583" type="line" smooth="yes"/>
      <point x="137" y="583"/>
      <point x="195" y="536"/>
      <point x="195" y="483" type="curve" smooth="yes"/>
      <point x="195" y="445"/>
      <point x="184" y="425"/>
      <point x="155" y="379" type="curve" smooth="yes"/>
      <point x="100" y="294"/>
      <point x="79" y="266"/>
      <point x="79" y="221" type="curve" smooth="yes"/>
      <point x="79" y="191"/>
      <point x="98" y="160"/>
    </contour>
    <component base="period" xOffset="58"/>
  </outline>
</glyph>
<glyph name="at" format="2">
  <advance width="732"/>
  <unicode hex="0040"/>
  <outline>
    <contour>
      <point x="327" y="-155" type="curve" smooth="yes"/>
      <point x="391" y="-155"/>
      <point x="459" y="-138"/>
      <point x="511" y="-110" type="curve"/>
      <point x="500" y="-76" type="line"/>
      <point x="437" y="-106"/>
      <point x="393" y="-117"/>
      <point x="342" y="-117" type="curve" smooth="yes"/>
      <point x="183" y="-117"/>
      <point x="74" y="-7"/>
      <point x="74" y="154" type="curve" smooth="yes"/>
      <point x="74" y="362"/>
      <point x="240" y="542"/>
      <point x="425" y="542" type="curve" smooth="yes"/>
      <point x="564" y="542"/>
      <point x="658" y="443"/>
      <point x="658" y="302" type="curve" smooth="yes"/>
      <point x="658" y="186"/>
      <point x="598" y="72"/>
      <point x="537" y="72" type="curve" smooth="yes"/>
      <point x="510" y="72"/>
      <point x="486" y="105"/>
      <point x="494" y="152" type="curve" smooth="yes"/>
      <point x="517" y="284" type="line" smooth="yes"/>
      <point x="525" y="331"/>
      <point x="539" y="390"/>
      <point x="548" y="423" type="curve"/>
      <point x="542" y="426" type="line"/>
      <point x="471" y="396" type="line"/>
      <point x="451" y="405"/>
      <point x="421" y="419"/>
      <point x="389" y="419" type="curve" smooth="yes"/>
      <point x="341" y="419"/>
      <point x="205" y="337"/>
      <point x="183" y="212" type="curve" smooth="yes"/>
      <point x="163" y="99"/>
      <point x="235" y="25"/>
      <point x="295" y="25" type="curve" smooth="yes"/>
      <point x="332" y="25"/>
      <point x="392" y="69"/>
      <point x="424" y="96" type="curve"/>
      <point x="432" y="48"/>
      <point x="462" y="20"/>
      <point x="509" y="20" type="curve" smooth="yes"/>
      <point x="610" y="20"/>
      <point x="702" y="159"/>
      <point x="702" y="312" type="curve" smooth="yes"/>
      <point x="702" y="470"/>
      <point x="590" y="582"/>
      <point x="435" y="582" type="curve" smooth="yes"/>
      <point x="218" y="582"/>
      <point x="30" y="384"/>
      <point x="30" y="155" type="curve" smooth="yes"/>
      <point x="30" y="-26"/>
      <point x="154" y="-155"/>
    </contour>
    <contour>
      <point x="341" y="93" type="curve" smooth="yes"/>
      <point x="298" y="93"/>
      <point x="237" y="145"/>
      <point x="255" y="247" type="curve" smooth="yes"/>
      <point x="267" y="315"/>
      <point x="303" y="366"/>
      <point x="344" y="366" type="curve" smooth="yes"/>
      <point x="386" y="366"/>
      <point x="433" y="330"/>
      <point x="449" y="317" type="curve"/>
      <point x="422" y="162" type="line" smooth="yes"/>
      <point x="416" y="129"/>
      <point x="383" y="93"/>
    </contour>
  </outline>
</glyph>
<glyph name="A" format="2">
  <advance width="574"/>
  <unicode hex="0041"/>
  <outline>
    <contour>
      <point x="288" y="595" type="curve"/>
      <point x="458" y="-10" type="line"/>
      <point x="564" y="11" type="line"/>
      <point x="533" y="95"/>
      <point x="372" y="623"/>
      <point x="351" y="718" type="curve"/>
      <point x="258" y="703" type="line"/>
      <point x="186" y="480"/>
      <point x="86" y="206"/>
      <point x="10" y="-7" type="curve"/>
      <point x="96" y="16" type="line"/>
      <point x="148" y="183"/>
      <point x="228" y="425"/>
    </contour>
    <contour>
      <point x="176" y="291" type="line"/>
      <point x="383" y="291" type="line"/>
      <point x="370" y="367" type="line"/>
      <point x="201" y="367" type="line"/>
    </contour>
  </outline>
</glyph>
<glyph name="B" format="2">
  <advance width="492"/>
  <unicode hex="0042"/>
  <note>
No source (Offenbach)
</note>
  <outline>
    <contour>
      <point x="70" y="25" type="curve"/>
      <point x="265" y="-15" type="line"/>
      <point x="303" y="-6"/>
      <point x="379" y="24"/>
      <point x="421" y="74" type="curve" smooth="yes"/>
      <point x="444" y="101"/>
      <point x="462" y="128"/>
      <point x="462" y="182" type="curve" smooth="yes"/>
      <point x="462" y="252"/>
      <point x="433" y="340"/>
      <point x="317" y="387" type="curve"/>
      <point x="398" y="422"/>
      <point x="436" y="494"/>
      <point x="436" y="554" type="curve" smooth="yes"/>
      <point x="436" y="643"/>
      <point x="363" y="715"/>
      <point x="275" y="715" type="curve" smooth="yes"/>
      <point x="249" y="715"/>
      <point x="229" y="713"/>
      <point x="205" y="709" type="curve"/>
      <point x="71" y="663" type="line"/>
      <point x="74" y="565"/>
      <point x="75" y="468"/>
      <point x="75" y="371" type="curve" smooth="yes"/>
      <point x="75" y="255"/>
      <point x="73" y="141"/>
    </contour>
    <contour>
      <point x="296" y="55" type="curve" smooth="yes"/>
      <point x="262" y="55"/>
      <point x="220" y="69"/>
      <point x="174" y="89" type="curve"/>
      <point x="172" y="198"/>
      <point x="170" y="301"/>
      <point x="170" y="408" type="curve" smooth="yes"/>
      <point x="170" y="490"/>
      <point x="171" y="569"/>
      <point x="173" y="652" type="curve"/>
      <point x="181" y="653"/>
      <point x="188" y="653"/>
      <point x="195" y="653" type="curve" smooth="yes"/>
      <point x="288" y="653"/>
      <point x="339" y="588"/>
      <point x="339" y="521" type="curve" smooth="yes"/>
      <point x="339" y="433"/>
      <point x="249" y="379"/>
      <point x="160" y="379" type="curve"/>
      <point x="160" y="349" type="line"/>
      <point x="319" y="349"/>
      <point x="368" y="220"/>
      <point x="368" y="147" type="curve" smooth="yes"/>
      <point x="368" y="104"/>
      <point x="354" y="55"/>
    </contour>
  </outline>
</glyph>
<glyph name="C" format="2">
  <advance width="552"/>
  <unicode hex="0043"/>
  <outline>
    <contour>
      <point x="367" y="-9" type="curve"/>
      <point x="418" y="0"/>
      <point x="487" y="34"/>
      <point x="542" y="89" type="curve"/>
      <point x="526" y="107" type="line"/>
      <point x="485" y="79"/>
      <point x="432" y="74"/>
      <point x="404" y="74" type="curve" smooth="yes"/>
      <point x="274" y="74"/>
      <point x="116" y="199"/>
      <point x="116" y="414" type="curve" smooth="yes"/>
      <point x="116" y="545"/>
      <point x="190" y="645"/>
      <point x="302" y="645" type="curve" smooth="yes"/>
      <point x="371" y="645"/>
      <point x="441" y="604"/>
      <point x="482" y="570" type="curve"/>
      <point x="540" y="656" type="line"/>
      <point x="494" y="688"/>
      <point x="426" y="715"/>
      <point x="359" y="715" type="curve" smooth="yes"/>
      <point x="177" y="715"/>
      <point x="30" y="528"/>
      <point x="30" y="354" type="curve" smooth="yes"/>
      <point x="30" y="126"/>
      <point x="194" y="-9"/>
    </contour>
  </outline>
</glyph>
<glyph name="D" format="2">
  <advance width="576"/>
  <unicode hex="0044"/>
  <outline>
    <contour>
      <point x="70" y="-3" type="curve"/>
      <point x="204" y="-3" type="line" smooth="yes"/>
      <point x="275" y="-3"/>
      <point x="397" y="70"/>
      <point x="440" y="114" type="curve" smooth="yes"/>
      <point x="482" y="157"/>
      <point x="546" y="212"/>
      <point x="546" y="372" type="curve" smooth="yes"/>
      <point x="546" y="565"/>
      <point x="376" y="709"/>
      <point x="155" y="713" type="curve"/>
      <point x="74" y="665" type="line"/>
      <point x="77" y="601"/>
      <point x="78" y="539"/>
      <point x="78" y="475" type="curve" smooth="yes"/>
      <point x="78" y="178" type="line" smooth="yes"/>
      <point x="78" y="82"/>
      <point x="77" y="56"/>
    </contour>
    <contour>
      <point x="241" y="71" type="curve" smooth="yes"/>
      <point x="221" y="71"/>
      <point x="199" y="72"/>
      <point x="175" y="75" type="curve"/>
      <point x="175" y="618" type="line"/>
      <point x="331" y="601"/>
      <point x="460" y="498"/>
      <point x="460" y="300" type="curve" smooth="yes"/>
      <point x="460" y="178"/>
      <point x="417" y="71"/>
    </contour>
  </outline>
</glyph>
<glyph name="E" format="2">
  <advance width="437"/>
  <unicode hex="0045"/>
  <outline>
    <contour>
      <point x="70" y="1" type="curve"/>
      <point x="159" y="6"/>
      <point x="265" y="5"/>
      <point x="354" y="2" type="curve"/>
      <point x="402" y="99" type="line"/>
      <point x="171" y="94" type="line"/>
      <point x="171" y="328" type="line"/>
      <point x="340" y="318" type="line"/>
      <point x="384" y="403" type="line"/>
      <point x="169" y="403" type="line"/>
      <point x="169" y="476"/>
      <point x="169" y="550"/>
      <point x="171" y="623" type="curve"/>
      <point x="361" y="620" type="line"/>
      <point x="407" y="710" type="line"/>
      <point x="126" y="710" type="line"/>
      <point x="70" y="659" type="line"/>
      <point x="78" y="545"/>
      <point x="75" y="457"/>
      <point x="75" y="364" type="curve" smooth="yes"/>
      <point x="75" y="199"/>
      <point x="74" y="45"/>
    </contour>
  </outline>
</glyph>
<glyph name="F" format="2">
  <advance width="420"/>
  <unicode hex="0046"/>
  <note>
Same than E
</note>
  <outline>
    <contour>
      <point x="72" y="-5" type="curve"/>
      <point x="176" y="24" type="line"/>
      <point x="173" y="125"/>
      <point x="173" y="227"/>
      <point x="173" y="328" type="curve"/>
      <point x="343" y="318" type="line"/>
      <point x="387" y="403" type="line"/>
      <point x="172" y="403" type="line"/>
      <point x="172" y="476"/>
      <point x="171" y="549"/>
      <point x="174" y="622" type="curve"/>
      <point x="364" y="619" type="line"/>
      <point x="410" y="710" type="line"/>
      <point x="129" y="710" type="line"/>
      <point x="70" y="659" type="line"/>
      <point x="76" y="619"/>
      <point x="76" y="496"/>
      <point x="76" y="366" type="curve" smooth="yes"/>
      <point x="76" y="105"/>
      <point x="75" y="33"/>
    </contour>
  </outline>
</glyph>
<glyph name="G" format="2">
  <advance width="636"/>
  <unicode hex="0047"/>
  <outline>
    <contour>
      <point x="376" y="-14" type="curve"/>
      <point x="573" y="75" type="line"/>
      <point x="580" y="372" type="line" smooth="yes"/>
      <point x="581" y="406"/>
      <point x="583" y="435"/>
      <point x="588" y="462" type="curve"/>
      <point x="439" y="462" type="line"/>
      <point x="380" y="378" type="line"/>
      <point x="484" y="378" type="line"/>
      <point x="484" y="74" type="line"/>
      <point x="347" y="56"/>
      <point x="117" y="165"/>
      <point x="117" y="402" type="curve" smooth="yes"/>
      <point x="117" y="540"/>
      <point x="199" y="645"/>
      <point x="309" y="645" type="curve" smooth="yes"/>
      <point x="405" y="645"/>
      <point x="496" y="588"/>
      <point x="525" y="560" type="curve"/>
      <point x="596" y="649" type="line"/>
      <point x="533" y="700"/>
      <point x="446" y="717"/>
      <point x="389" y="717" type="curve" smooth="yes"/>
      <point x="231" y="717"/>
      <point x="30" y="570"/>
      <point x="30" y="356" type="curve" smooth="yes"/>
      <point x="30" y="124"/>
      <point x="229" y="-14"/>
    </contour>
  </outline>
</glyph>
<glyph name="H" format="2">
  <advance width="585"/>
  <unicode hex="0048"/>
  <outline>
    <contour>
      <point x="70" y="-15" type="curve"/>
      <point x="180" y="8" type="line"/>
      <point x="178" y="112"/>
      <point x="177" y="217"/>
      <point x="177" y="321" type="curve"/>
      <point x="407" y="321" type="line"/>
      <point x="407" y="208"/>
      <point x="405" y="98"/>
      <point x="394" y="-15" type="curve"/>
      <point x="510" y="5" type="line"/>
      <point x="503" y="244"/>
      <point x="501" y="481"/>
      <point x="515" y="719" type="curve"/>
      <point x="403" y="707" type="line"/>
      <point x="406" y="608"/>
      <point x="408" y="495"/>
      <point x="409" y="396" type="curve"/>
      <point x="177" y="396" type="line"/>
      <point x="177" y="503"/>
      <point x="179" y="613"/>
      <point x="186" y="720" type="curve"/>
      <point x="72" y="703" type="line"/>
      <point x="81" y="466"/>
      <point x="81" y="193"/>
    </contour>
  </outline>
</glyph>
<glyph name="I" format="2">
  <advance width="249"/>
  <unicode hex="0049"/>
  <outline>
    <contour>
      <point x="70" y="-15" type="curve"/>
      <point x="178" y="10" type="line"/>
      <point x="173" y="219"/>
      <point x="168" y="483"/>
      <point x="179" y="722" type="curve"/>
      <point x="73" y="704" type="line"/>
      <point x="79" y="466"/>
      <point x="79" y="174"/>
    </contour>
  </outline>
</glyph>
<glyph name="J" format="2">
  <advance width="408"/>
  <unicode hex="004A"/>
  <outline>
    <contour>
      <point x="152" y="-9" type="curve" smooth="yes"/>
      <point x="219" y="-9"/>
      <point x="343" y="119"/>
      <point x="343" y="171" type="curve" smooth="yes"/>
      <point x="343" y="471" type="line" smooth="yes"/>
      <point x="343" y="494"/>
      <point x="342" y="627"/>
      <point x="348" y="725" type="curve"/>
      <point x="241" y="708" type="line"/>
      <point x="245" y="520"/>
      <point x="247" y="322"/>
      <point x="247" y="133" type="curve" smooth="yes"/>
      <point x="247" y="100"/>
      <point x="245" y="51"/>
      <point x="204" y="51" type="curve" smooth="yes"/>
      <point x="160" y="51"/>
      <point x="107" y="108"/>
      <point x="73" y="175" type="curve"/>
      <point x="0" y="121" type="line"/>
      <point x="11" y="72"/>
      <point x="80" y="-9"/>
    </contour>
  </outline>
</glyph>
<glyph name="K" format="2">
  <advance width="536"/>
  <unicode hex="004B"/>
  <outline>
    <contour>
      <point x="70" y="-14" type="curve"/>
      <point x="181" y="11" type="line"/>
      <point x="177" y="97"/>
      <point x="173" y="218"/>
      <point x="174" y="331" type="curve"/>
      <point x="237" y="259"/>
      <point x="390" y="57"/>
      <point x="440" y="-12" type="curve"/>
      <point x="531" y="58" type="line"/>
      <point x="441" y="166"/>
      <point x="336" y="277"/>
      <point x="252" y="385" type="curve"/>
      <point x="525" y="695" type="line"/>
      <point x="525" y="719" type="line"/>
      <point x="440" y="706" type="line"/>
      <point x="361" y="601"/>
      <point x="259" y="467"/>
      <point x="175" y="373" type="curve"/>
      <point x="174" y="515"/>
      <point x="177" y="648"/>
      <point x="179" y="719" type="curve"/>
      <point x="72" y="703" type="line"/>
      <point x="80" y="542"/>
      <point x="73" y="83"/>
    </contour>
  </outline>
</glyph>
<glyph name="L" format="2">
  <advance width="382"/>
  <unicode hex="004C"/>
  <outline>
    <contour>
      <point x="70" y="-1" type="curve"/>
      <point x="152" y="2"/>
      <point x="256" y="2"/>
      <point x="338" y="-1" type="curve"/>
      <point x="377" y="102" type="line"/>
      <point x="306" y="98"/>
      <point x="240" y="95"/>
      <point x="167" y="95" type="curve"/>
      <point x="171" y="384" type="line" smooth="yes"/>
      <point x="174" y="615"/>
      <point x="177" y="678"/>
      <point x="179" y="721" type="curve"/>
      <point x="71" y="706" type="line"/>
      <point x="72" y="651"/>
      <point x="74" y="593"/>
      <point x="74" y="538" type="curve" smooth="yes"/>
      <point x="74" y="181" type="line" smooth="yes"/>
      <point x="74" y="121"/>
      <point x="73" y="58"/>
    </contour>
  </outline>
</glyph>
<glyph name="M" format="2">
  <advance width="783"/>
  <unicode hex="004D"/>
  <outline>
    <contour>
      <point x="360" y="-13" type="curve"/>
      <point x="417" y="2" type="line"/>
      <point x="603" y="550" type="line"/>
      <point x="622" y="364"/>
      <point x="633" y="145"/>
      <point x="642" y="-11" type="curve"/>
      <point x="743" y="8" type="line"/>
      <point x="728" y="136"/>
      <point x="686" y="591"/>
      <point x="679" y="716" type="curve"/>
      <point x="581" y="698" type="line"/>
      <point x="524" y="529"/>
      <point x="468" y="336"/>
      <point x="402" y="154" type="curve"/>
      <point x="277" y="526" type="line" smooth="yes"/>
      <point x="255" y="590"/>
      <point x="240" y="645"/>
      <point x="220" y="716" type="curve"/>
      <point x="119" y="692" type="line"/>
      <point x="97" y="462"/>
      <point x="65" y="205"/>
      <point x="40" y="-5" type="curve"/>
      <point x="118" y="3" type="line"/>
      <point x="130" y="180"/>
      <point x="150" y="363"/>
      <point x="170" y="541" type="curve"/>
      <point x="240" y="370"/>
      <point x="306" y="158"/>
    </contour>
  </outline>
</glyph>
<glyph name="N" format="2">
  <advance width="637"/>
  <unicode hex="004E"/>
  <outline>
    <contour>
      <point x="499" y="-11" type="curve"/>
      <point x="570" y="24" type="line"/>
      <point x="559" y="207"/>
      <point x="567" y="535"/>
      <point x="572" y="720" type="curve"/>
      <point x="490" y="695" type="line"/>
      <point x="495" y="520"/>
      <point x="497" y="344"/>
      <point x="499" y="169" type="curve"/>
      <point x="423" y="293"/>
      <point x="276" y="525"/>
      <point x="163" y="721" type="curve"/>
      <point x="69" y="676" type="line"/>
      <point x="81" y="542"/>
      <point x="74" y="157"/>
      <point x="65" y="-10" type="curve"/>
      <point x="154" y="13" type="line"/>
      <point x="147" y="191"/>
      <point x="145" y="370"/>
      <point x="146" y="548" type="curve"/>
      <point x="272" y="371"/>
      <point x="379" y="172"/>
    </contour>
  </outline>
</glyph>
<glyph name="O" format="2">
  <advance width="719"/>
  <unicode hex="004F"/>
  <outline>
    <contour>
      <point x="351" y="-7" type="curve" smooth="yes"/>
      <point x="504" y="-7"/>
      <point x="689" y="136"/>
      <point x="689" y="377" type="curve" smooth="yes"/>
      <point x="689" y="503"/>
      <point x="582" y="715"/>
      <point x="351" y="715" type="curve" smooth="yes"/>
      <point x="230" y="715"/>
      <point x="30" y="579"/>
      <point x="30" y="349" type="curve" smooth="yes"/>
      <point x="30" y="162"/>
      <point x="169" y="-7"/>
    </contour>
    <contour>
      <point x="411" y="74" type="curve" smooth="yes"/>
      <point x="240" y="74"/>
      <point x="117" y="231"/>
      <point x="117" y="413" type="curve" smooth="yes"/>
      <point x="117" y="531"/>
      <point x="179" y="644"/>
      <point x="302" y="644" type="curve" smooth="yes"/>
      <point x="454" y="644"/>
      <point x="603" y="476"/>
      <point x="603" y="284" type="curve" smooth="yes"/>
      <point x="603" y="180"/>
      <point x="543" y="74"/>
    </contour>
  </outline>
</glyph>
<glyph name="P" format="2">
  <advance width="462"/>
  <unicode hex="0050"/>
  <outline>
    <contour>
      <point x="70" y="-16" type="curve"/>
      <point x="183" y="12" type="line"/>
      <point x="179" y="100"/>
      <point x="176" y="192"/>
      <point x="175" y="277" type="curve"/>
      <point x="393" y="269"/>
      <point x="452" y="417"/>
      <point x="452" y="486" type="curve" smooth="yes"/>
      <point x="452" y="593"/>
      <point x="374" y="721"/>
      <point x="155" y="717" type="curve"/>
      <point x="76" y="670" type="line"/>
      <point x="80" y="602"/>
      <point x="80" y="456"/>
      <point x="80" y="293" type="curve" smooth="yes"/>
      <point x="80" y="195"/>
      <point x="77" y="65"/>
    </contour>
    <contour>
      <point x="285" y="333" type="curve" smooth="yes"/>
      <point x="251" y="333"/>
      <point x="203" y="343"/>
      <point x="177" y="352" type="curve"/>
      <point x="177" y="622" type="line"/>
      <point x="298" y="619"/>
      <point x="367" y="544"/>
      <point x="367" y="447" type="curve" smooth="yes"/>
      <point x="367" y="382"/>
      <point x="346" y="333"/>
    </contour>
  </outline>
</glyph>
<glyph name="Q" format="2">
  <advance width="729"/>
  <unicode hex="0051"/>
  <outline>
    <contour>
      <point x="641" y="-14" type="curve"/>
      <point x="719" y="49" type="line"/>
      <point x="648" y="86"/>
      <point x="539" y="159"/>
      <point x="482" y="206" type="curve"/>
      <point x="415" y="142" type="line"/>
      <point x="493" y="78"/>
      <point x="563" y="31"/>
    </contour>
    <component base="O"/>
  </outline>
</glyph>
<glyph name="R" format="2">
  <advance width="503"/>
  <unicode hex="0052"/>
  <outline>
    <contour>
      <point x="70" y="-15" type="curve"/>
      <point x="182" y="12" type="line"/>
      <point x="177" y="146"/>
      <point x="176" y="278"/>
      <point x="176" y="413" type="curve" smooth="yes"/>
      <point x="176" y="488"/>
      <point x="177" y="549"/>
      <point x="178" y="627" type="curve"/>
      <point x="306" y="638"/>
      <point x="367" y="569"/>
      <point x="367" y="459" type="curve" smooth="yes"/>
      <point x="367" y="365"/>
      <point x="310" y="351"/>
      <point x="261" y="358" type="curve"/>
      <point x="186" y="307" type="line"/>
      <point x="268" y="198"/>
      <point x="353" y="63"/>
      <point x="401" y="-15" type="curve"/>
      <point x="498" y="34" type="line"/>
      <point x="429" y="120"/>
      <point x="352" y="237"/>
      <point x="297" y="325" type="curve"/>
      <point x="394" y="358"/>
      <point x="464" y="417"/>
      <point x="464" y="523" type="curve" smooth="yes"/>
      <point x="464" y="635"/>
      <point x="362" y="710"/>
      <point x="215" y="710" type="curve" smooth="yes"/>
      <point x="158" y="710" type="line"/>
      <point x="73" y="667" type="line"/>
      <point x="76" y="593"/>
      <point x="76" y="347"/>
      <point x="76" y="239" type="curve" smooth="yes"/>
      <point x="76" y="166"/>
      <point x="73" y="16"/>
    </contour>
  </outline>
</glyph>
<glyph name="S" format="2">
  <advance width="420"/>
  <unicode hex="0053"/>
  <outline>
    <contour>
      <point x="208" y="-5" type="curve" smooth="yes"/>
      <point x="261" y="-5"/>
      <point x="395" y="112"/>
      <point x="395" y="215" type="curve" smooth="yes"/>
      <point x="395" y="310"/>
      <point x="328" y="346"/>
      <point x="245" y="417" type="curve" smooth="yes"/>
      <point x="188" y="466"/>
      <point x="149" y="493"/>
      <point x="149" y="570" type="curve" smooth="yes"/>
      <point x="149" y="607"/>
      <point x="168" y="631"/>
      <point x="201" y="631" type="curve" smooth="yes"/>
      <point x="244" y="631"/>
      <point x="296" y="606"/>
      <point x="331" y="581" type="curve"/>
      <point x="393" y="671" type="line"/>
      <point x="346" y="705"/>
      <point x="302" y="714"/>
      <point x="255" y="714" type="curve" smooth="yes"/>
      <point x="235" y="714"/>
      <point x="214" y="704"/>
      <point x="195" y="693" type="curve" smooth="yes"/>
      <point x="138" y="660"/>
      <point x="56" y="587"/>
      <point x="56" y="506" type="curve" smooth="yes"/>
      <point x="56" y="433"/>
      <point x="109" y="380"/>
      <point x="193" y="316" type="curve" smooth="yes"/>
      <point x="276" y="253"/>
      <point x="310" y="213"/>
      <point x="310" y="142" type="curve" smooth="yes"/>
      <point x="310" y="101"/>
      <point x="296" y="80"/>
      <point x="252" y="80" type="curve" smooth="yes"/>
      <point x="203" y="80"/>
      <point x="133" y="111"/>
      <point x="87" y="143" type="curve"/>
      <point x="25" y="58" type="line"/>
      <point x="78" y="20"/>
      <point x="148" y="-5"/>
    </contour>
  </outline>
</glyph>
<glyph name="T" format="2">
  <advance width="420"/>
  <unicode hex="0054"/>
  <outline>
    <contour>
      <point x="150" y="-5" type="curve"/>
      <point x="257" y="4" type="line"/>
      <point x="250" y="221"/>
      <point x="250" y="443"/>
      <point x="252" y="622" type="curve"/>
      <point x="291" y="623"/>
      <point x="331" y="621"/>
      <point x="372" y="620" type="curve"/>
      <point x="420" y="719" type="line"/>
      <point x="299" y="708"/>
      <point x="174" y="704"/>
      <point x="53" y="710" type="curve"/>
      <point x="5" y="617" type="line"/>
      <point x="156" y="621" type="line"/>
      <point x="158" y="405"/>
      <point x="157" y="192"/>
    </contour>
  </outline>
</glyph>
<glyph name="U" format="2">
  <advance width="607"/>
  <unicode hex="0055"/>
  <outline>
    <contour>
      <point x="430" y="88" type="curve"/>
      <point x="428" y="-15" type="line"/>
      <point x="537" y="14" type="line"/>
      <point x="530" y="53"/>
      <point x="529" y="248"/>
      <point x="531" y="441" type="curve" smooth="yes"/>
      <point x="532" y="543"/>
      <point x="531" y="640"/>
      <point x="536" y="719" type="curve"/>
      <point x="427" y="697" type="line"/>
      <point x="432" y="514"/>
      <point x="431" y="377"/>
      <point x="431" y="205" type="curve" smooth="yes"/>
      <point x="431" y="111"/>
      <point x="361" y="54"/>
      <point x="295" y="54" type="curve" smooth="yes"/>
      <point x="238" y="54"/>
      <point x="178" y="96"/>
      <point x="175" y="187" type="curve" smooth="yes"/>
      <point x="170" y="365"/>
      <point x="173" y="536"/>
      <point x="178" y="715" type="curve"/>
      <point x="70" y="695" type="line"/>
      <point x="77" y="527"/>
      <point x="73" y="345"/>
      <point x="75" y="175" type="curve" smooth="yes"/>
      <point x="76" y="64"/>
      <point x="150" y="-9"/>
      <point x="259" y="-9" type="curve" smooth="yes"/>
      <point x="335" y="-9"/>
      <point x="398" y="54"/>
    </contour>
  </outline>
</glyph>
<glyph name="V" format="2">
  <advance width="563"/>
  <unicode hex="0056"/>
  <outline>
    <contour>
      <point x="267" y="-15" type="line"/>
      <point x="320" y="2" type="line"/>
      <point x="327" y="51"/>
      <point x="437" y="403"/>
      <point x="553" y="710" type="curve"/>
      <point x="473" y="710" type="line"/>
      <point x="308" y="165" type="line"/>
      <point x="117" y="723" type="line"/>
      <point x="10" y="698" type="line"/>
    </contour>
  </outline>
</glyph>
<glyph name="W" format="2">
  <advance width="792"/>
  <unicode hex="0057"/>
  <outline>
    <contour>
      <point x="404" y="266" type="curve"/>
      <point x="507" y="-7" type="line"/>
      <point x="562" y="6" type="line"/>
      <point x="569" y="55"/>
      <point x="666" y="401"/>
      <point x="782" y="708" type="curve"/>
      <point x="701" y="708" type="line"/>
      <point x="540" y="162" type="line"/>
      <point x="454" y="402" type="line"/>
      <point x="572" y="710" type="line"/>
      <point x="502" y="710" type="line"/>
      <point x="421" y="478" type="line"/>
      <point x="334" y="721" type="line"/>
      <point x="232" y="698" type="line"/>
      <point x="368" y="358" type="line"/>
      <point x="305" y="163" type="line"/>
      <point x="110" y="724" type="line"/>
      <point x="10" y="700" type="line"/>
      <point x="257" y="-5" type="line"/>
      <point x="321" y="12" type="line"/>
      <point x="324" y="36"/>
      <point x="359" y="133"/>
    </contour>
  </outline>
</glyph>
<glyph name="X" format="2">
  <advance width="509"/>
  <unicode hex="0058"/>
  <outline>
    <contour>
      <point x="248" y="289" type="curve"/>
      <point x="398" y="-7" type="line"/>
      <point x="494" y="23" type="line"/>
      <point x="427" y="145"/>
      <point x="366" y="268"/>
      <point x="302" y="390" type="curve"/>
      <point x="357" y="498"/>
      <point x="418" y="611"/>
      <point x="478" y="719" type="curve"/>
      <point x="399" y="708" type="line"/>
      <point x="270" y="449" type="line"/>
      <point x="130" y="721" type="line"/>
      <point x="28" y="699" type="line"/>
      <point x="212" y="356" type="line"/>
      <point x="153" y="237"/>
      <point x="90" y="117"/>
      <point x="25" y="-2" type="curve"/>
      <point x="111" y="13" type="line"/>
      <point x="153" y="105"/>
      <point x="201" y="197"/>
    </contour>
  </outline>
</glyph>
<glyph name="Y" format="2">
  <advance width="540"/>
  <unicode hex="0059"/>
  <outline>
    <contour>
      <point x="236" y="-14" type="curve"/>
      <point x="345" y="12" type="line"/>
      <point x="341" y="124"/>
      <point x="338" y="236"/>
      <point x="338" y="348" type="curve"/>
      <point x="530" y="719" type="line"/>
      <point x="442" y="709" type="line"/>
      <point x="306" y="419" type="line"/>
      <point x="110" y="725" type="line"/>
      <point x="10" y="695" type="line"/>
      <point x="87" y="575"/>
      <point x="165" y="466"/>
      <point x="239" y="346" type="curve"/>
      <point x="240" y="226"/>
      <point x="241" y="106"/>
    </contour>
  </outline>
</glyph>
<glyph name="Z" format="2">
  <advance width="435"/>
  <unicode hex="005A"/>
  <outline>
    <contour>
      <point x="340" y="-33" type="curve"/>
      <point x="359" y="-33" type="line"/>
      <point x="376" y="6"/>
      <point x="405" y="66"/>
      <point x="425" y="104" type="curve"/>
      <point x="345" y="97"/>
      <point x="225" y="97"/>
      <point x="125" y="98" type="curve"/>
      <point x="425" y="710" type="line"/>
      <point x="305" y="710"/>
      <point x="158" y="708"/>
      <point x="68" y="716" type="curve"/>
      <point x="20" y="614" type="line"/>
      <point x="118" y="618"/>
      <point x="214" y="620"/>
      <point x="313" y="618" type="curve"/>
      <point x="20" y="0" type="line"/>
      <point x="330" y="0" type="line" smooth="yes"/>
      <point x="347" y="0"/>
      <point x="346" y="-18"/>
    </contour>
  </outline>
</glyph>
<glyph name="bracketleft" format="2">
  <advance width="246"/>
  <unicode hex="005B"/>
  <outline>
    <contour>
      <point x="70" y="-168" type="line"/>
      <point x="224" y="-168" type="line"/>
      <point x="224" y="-118" type="line"/>
      <point x="130" y="-118" type="line"/>
      <point x="130" y="709" type="line"/>
      <point x="226" y="709" type="line"/>
      <point x="226" y="759" type="line"/>
      <point x="70" y="759" type="line"/>
    </contour>
  </outline>
</glyph>
<glyph name="backslash" format="2">
  <advance width="399"/>
  <unicode hex="005C"/>
  <outline>
    <contour>
      <point x="60" y="759" type="curve"/>
      <point x="0" y="759" type="line"/>
      <point x="108" y="450"/>
      <point x="211" y="141"/>
      <point x="312" y="-168" type="curve"/>
      <point x="399" y="-168" type="line"/>
      <point x="279" y="141"/>
      <point x="161" y="450"/>
    </contour>
  </outline>
</glyph>
<glyph name="bracketright" format="2">
  <advance width="246"/>
  <unicode hex="005D"/>
  <outline>
    <contour>
      <point x="176" y="-168" type="line"/>
      <point x="176" y="759" type="line"/>
      <point x="20" y="759" type="line"/>
      <point x="20" y="709" type="line"/>
      <point x="116" y="709" type="line"/>
      <point x="116" y="-118" type="line"/>
      <point x="22" y="-118" type="line"/>
      <point x="22" y="-168" type="line"/>
    </contour>
  </outline>
</glyph>
<glyph name="grave" format="2">
  <advance width="500"/>
  <unicode hex="0060"/>
  <outline>
    <contour>
      <point x="287" y="520" type="curve"/>
      <point x="344" y="520" type="line"/>
      <point x="266" y="673" type="line"/>
      <point x="156" y="673" type="line"/>
      <point x="204" y="622"/>
      <point x="249" y="571"/>
    </contour>
  </outline>
</glyph>
<glyph name="a" format="2">
  <advance width="425"/>
  <unicode hex="0061"/>
  <outline>
    <contour>
      <point x="157" y="-15" type="curve" smooth="yes"/>
      <point x="197" y="-15"/>
      <point x="250" y="30"/>
      <point x="282" y="59" type="curve"/>
      <point x="278" y="-15" type="line"/>
      <point x="370" y="7" type="line"/>
      <point x="370" y="294" type="line" smooth="yes"/>
      <point x="370" y="404"/>
      <point x="286" y="465"/>
      <point x="216" y="465" type="curve" smooth="yes"/>
      <point x="175" y="465"/>
      <point x="79" y="399"/>
      <point x="53" y="365" type="curve"/>
      <point x="73" y="341" type="line"/>
      <point x="102" y="370"/>
      <point x="145" y="393"/>
      <point x="180" y="393" type="curve" smooth="yes"/>
      <point x="238" y="393"/>
      <point x="281" y="352"/>
      <point x="281" y="289" type="curve" smooth="yes"/>
      <point x="281" y="269" type="line"/>
      <point x="246" y="279"/>
      <point x="227" y="287"/>
      <point x="212" y="287" type="curve" smooth="yes"/>
      <point x="167" y="287"/>
      <point x="40" y="210"/>
      <point x="40" y="116" type="curve" smooth="yes"/>
      <point x="40" y="35"/>
      <point x="111" y="-15"/>
    </contour>
    <contour>
      <point x="209" y="61" type="curve" smooth="yes"/>
      <point x="158" y="61"/>
      <point x="110" y="111"/>
      <point x="110" y="168" type="curve" smooth="yes"/>
      <point x="110" y="204"/>
      <point x="136" y="226"/>
      <point x="179" y="227" type="curve" smooth="yes"/>
      <point x="213" y="227"/>
      <point x="250" y="213"/>
      <point x="281" y="192" type="curve"/>
      <point x="281" y="146" type="line" smooth="yes"/>
      <point x="281" y="79"/>
      <point x="239" y="61"/>
    </contour>
  </outline>
</glyph>
<glyph name="b" format="2">
  <advance width="476"/>
  <unicode hex="0062"/>
  <outline>
    <contour>
      <point x="55" y="27" type="curve"/>
      <point x="214" y="-15" type="line"/>
      <point x="284" y="-15"/>
      <point x="456" y="90"/>
      <point x="456" y="264" type="curve" smooth="yes"/>
      <point x="456" y="422"/>
      <point x="314" y="465"/>
      <point x="290" y="465" type="curve" smooth="yes"/>
      <point x="254" y="465"/>
      <point x="193" y="419"/>
      <point x="155" y="390" type="curve"/>
      <point x="157" y="497"/>
      <point x="157" y="610"/>
      <point x="164" y="725" type="curve"/>
      <point x="60" y="697" type="line"/>
      <point x="65" y="639"/>
      <point x="65" y="554"/>
      <point x="65" y="466" type="curve" smooth="yes"/>
      <point x="65" y="151" type="line" smooth="yes"/>
      <point x="65" y="95"/>
      <point x="60" y="58"/>
    </contour>
    <contour>
      <point x="264" y="67" type="curve" smooth="yes"/>
      <point x="226" y="67"/>
      <point x="178" y="89"/>
      <point x="155" y="98" type="curve"/>
      <point x="155" y="293" type="line" smooth="yes"/>
      <point x="155" y="337"/>
      <point x="182" y="389"/>
      <point x="236" y="389" type="curve" smooth="yes"/>
      <point x="289" y="389"/>
      <point x="366" y="326"/>
      <point x="366" y="213" type="curve" smooth="yes"/>
      <point x="366" y="134"/>
      <point x="329" y="67"/>
    </contour>
  </outline>
</glyph>
<glyph name="c" format="2">
  <advance width="376"/>
  <unicode hex="0063"/>
  <outline>
    <contour>
      <point x="220" y="-15" type="curve" smooth="yes"/>
      <point x="264" y="-15"/>
      <point x="324" y="38"/>
      <point x="362" y="77" type="curve"/>
      <point x="343" y="100" type="line"/>
      <point x="319" y="82"/>
      <point x="297" y="72"/>
      <point x="258" y="72" type="curve" smooth="yes"/>
      <point x="187" y="72"/>
      <point x="101" y="135"/>
      <point x="101" y="267" type="curve" smooth="yes"/>
      <point x="101" y="349"/>
      <point x="143" y="399"/>
      <point x="181" y="399" type="curve" smooth="yes"/>
      <point x="230" y="399"/>
      <point x="289" y="348"/>
      <point x="314" y="332" type="curve"/>
      <point x="376" y="414" type="line"/>
      <point x="328" y="450"/>
      <point x="280" y="465"/>
      <point x="236" y="465" type="curve" smooth="yes"/>
      <point x="178" y="465"/>
      <point x="65" y="393"/>
      <point x="29" y="294" type="curve" smooth="yes"/>
      <point x="21" y="272"/>
      <point x="20" y="243"/>
      <point x="20" y="217" type="curve" smooth="yes"/>
      <point x="20" y="99"/>
      <point x="111" y="-15"/>
    </contour>
  </outline>
</glyph>
<glyph name="d" format="2">
  <advance width="484"/>
  <unicode hex="0064"/>
  <outline>
    <contour>
      <point x="200" y="-16" type="curve" smooth="yes"/>
      <point x="226" y="-16"/>
      <point x="288" y="38"/>
      <point x="325" y="72" type="curve"/>
      <point x="323" y="-15" type="line"/>
      <point x="419" y="5" type="line"/>
      <point x="416" y="66"/>
      <point x="417" y="131"/>
      <point x="417" y="192" type="curve" smooth="yes"/>
      <point x="417" y="384" type="line" smooth="yes"/>
      <point x="417" y="493"/>
      <point x="420" y="618"/>
      <point x="424" y="727" type="curve"/>
      <point x="323" y="695" type="line"/>
      <point x="325" y="654"/>
      <point x="326" y="586"/>
      <point x="326" y="509" type="curve" smooth="yes"/>
      <point x="326" y="441" type="line"/>
      <point x="294" y="456"/>
      <point x="265" y="465"/>
      <point x="236" y="465" type="curve" smooth="yes"/>
      <point x="166" y="465"/>
      <point x="20" y="365"/>
      <point x="20" y="210" type="curve" smooth="yes"/>
      <point x="20" y="97"/>
      <point x="107" y="-16"/>
    </contour>
    <contour>
      <point x="242" y="68" type="curve" smooth="yes"/>
      <point x="192" y="68"/>
      <point x="100" y="127"/>
      <point x="100" y="263" type="curve" smooth="yes"/>
      <point x="100" y="340"/>
      <point x="142" y="399"/>
      <point x="192" y="399" type="curve" smooth="yes"/>
      <point x="236" y="399"/>
      <point x="284" y="368"/>
      <point x="326" y="329" type="curve"/>
      <point x="326" y="186" type="line" smooth="yes"/>
      <point x="326" y="108"/>
      <point x="294" y="68"/>
    </contour>
  </outline>
</glyph>
<glyph name="e" format="2">
  <advance width="408"/>
  <unicode hex="0065"/>
  <outline>
    <contour>
      <point x="222" y="-15" type="curve" smooth="yes"/>
      <point x="284" y="-15"/>
      <point x="349" y="35"/>
      <point x="388" y="82" type="curve"/>
      <point x="368" y="104" type="line"/>
      <point x="340" y="83"/>
      <point x="302" y="66"/>
      <point x="263" y="66" type="curve" smooth="yes"/>
      <point x="187" y="66"/>
      <point x="102" y="124"/>
      <point x="102" y="242" type="curve" smooth="yes"/>
      <point x="102" y="338"/>
      <point x="130" y="393"/>
      <point x="186" y="393" type="curve" smooth="yes"/>
      <point x="259" y="393"/>
      <point x="295" y="319"/>
      <point x="298" y="265" type="curve"/>
      <point x="82" y="265" type="line"/>
      <point x="82" y="194" type="line"/>
      <point x="294" y="194" type="line"/>
      <point x="321" y="204"/>
      <point x="384" y="266"/>
      <point x="384" y="307" type="curve" smooth="yes"/>
      <point x="384" y="378"/>
      <point x="308" y="465"/>
      <point x="221" y="465" type="curve" smooth="yes"/>
      <point x="183" y="465"/>
      <point x="83" y="388"/>
      <point x="41" y="321" type="curve"/>
      <point x="27" y="293"/>
      <point x="20" y="261"/>
      <point x="20" y="220" type="curve" smooth="yes"/>
      <point x="20" y="83"/>
      <point x="120" y="-15"/>
    </contour>
  </outline>
</glyph>
<glyph name="f" format="2">
  <advance width="247"/>
  <unicode hex="0066"/>
  <outline>
    <contour>
      <point x="68" y="-15" type="curve"/>
      <point x="163" y="5" type="line"/>
      <point x="160" y="59"/>
      <point x="161" y="126"/>
      <point x="161" y="177" type="curve" smooth="yes"/>
      <point x="161" y="371" type="line"/>
      <point x="221" y="371" type="line"/>
      <point x="264" y="456" type="line"/>
      <point x="162" y="451" type="line"/>
      <point x="162" y="595" type="line" smooth="yes"/>
      <point x="162" y="640"/>
      <point x="167" y="658"/>
      <point x="178" y="658" type="curve" smooth="yes"/>
      <point x="197" y="658"/>
      <point x="225" y="611"/>
      <point x="236" y="579" type="curve"/>
      <point x="317" y="637" type="line"/>
      <point x="300" y="669"/>
      <point x="259" y="725"/>
      <point x="222" y="725" type="curve" smooth="yes"/>
      <point x="180" y="725"/>
      <point x="73" y="647"/>
      <point x="73" y="562" type="curve" smooth="yes"/>
      <point x="73" y="447" type="line"/>
      <point x="35" y="383" type="line"/>
      <point x="40" y="371" type="line"/>
      <point x="72" y="371" type="line"/>
      <point x="72" y="212" type="line" smooth="yes"/>
      <point x="72" y="157"/>
      <point x="71" y="58"/>
    </contour>
  </outline>
</glyph>
<glyph name="g" format="2">
  <advance width="420"/>
  <unicode hex="0067"/>
  <outline>
    <contour>
      <point x="190" y="-245" type="curve" smooth="yes"/>
      <point x="284" y="-245"/>
      <point x="400" y="-112"/>
      <point x="400" y="-44" type="curve" smooth="yes"/>
      <point x="400" y="24"/>
      <point x="343" y="42"/>
      <point x="286" y="40" type="curve" smooth="yes"/>
      <point x="171" y="36" type="line" smooth="yes"/>
      <point x="162" y="36"/>
      <point x="155" y="38"/>
      <point x="155" y="44" type="curve" smooth="yes"/>
      <point x="155" y="51"/>
      <point x="161" y="55"/>
      <point x="167" y="58" type="curve" smooth="yes"/>
      <point x="305" y="133" type="line" smooth="yes"/>
      <point x="365" y="165"/>
      <point x="383" y="230"/>
      <point x="383" y="279" type="curve" smooth="yes"/>
      <point x="383" y="314"/>
      <point x="367" y="352"/>
      <point x="344" y="387" type="curve"/>
      <point x="400" y="440" type="line"/>
      <point x="392" y="454" type="line"/>
      <point x="301" y="437" type="line"/>
      <point x="291" y="446"/>
      <point x="253" y="465"/>
      <point x="230" y="465" type="curve" smooth="yes"/>
      <point x="207" y="465"/>
      <point x="171" y="445"/>
      <point x="126" y="413" type="curve" smooth="yes"/>
      <point x="81" y="381"/>
      <point x="30" y="336"/>
      <point x="30" y="240" type="curve" smooth="yes"/>
      <point x="30" y="158"/>
      <point x="105" y="95"/>
      <point x="150" y="94" type="curve"/>
      <point x="133" y="84"/>
      <point x="68" y="49"/>
      <point x="68" y="13" type="curve" smooth="yes"/>
      <point x="68" y="-6"/>
      <point x="91" y="-27"/>
      <point x="107" y="-35" type="curve"/>
      <point x="64" y="-57"/>
      <point x="33" y="-80"/>
      <point x="33" y="-114" type="curve" smooth="yes"/>
      <point x="33" y="-193"/>
      <point x="98" y="-245"/>
    </contour>
    <contour>
      <point x="235" y="-184" type="curve" smooth="yes"/>
      <point x="167" y="-184"/>
      <point x="115" y="-149"/>
      <point x="115" y="-89" type="curve" smooth="yes"/>
      <point x="115" y="-66"/>
      <point x="127" y="-46"/>
      <point x="144" y="-46" type="curve" smooth="yes"/>
      <point x="249" y="-46" type="line" smooth="yes"/>
      <point x="303" y="-46"/>
      <point x="330" y="-53"/>
      <point x="330" y="-96" type="curve" smooth="yes"/>
      <point x="330" y="-138"/>
      <point x="290" y="-184"/>
    </contour>
    <contour>
      <point x="235" y="140" type="curve" smooth="yes"/>
      <point x="181" y="140"/>
      <point x="108" y="195"/>
      <point x="108" y="298" type="curve" smooth="yes"/>
      <point x="108" y="365"/>
      <point x="135" y="392"/>
      <point x="174" y="392" type="curve" smooth="yes"/>
      <point x="227" y="392"/>
      <point x="304" y="343"/>
      <point x="304" y="232" type="curve" smooth="yes"/>
      <point x="304" y="167"/>
      <point x="274" y="140"/>
    </contour>
  </outline>
</glyph>
<glyph name="h" format="2">
  <advance width="461"/>
  <unicode hex="0068"/>
  <outline>
    <contour>
      <point x="312" y="-13" type="curve"/>
      <point x="406" y="1" type="line"/>
      <point x="403" y="53"/>
      <point x="404" y="107"/>
      <point x="404" y="159" type="curve" smooth="yes"/>
      <point x="404" y="330" type="line" smooth="yes"/>
      <point x="404" y="415"/>
      <point x="316" y="465"/>
      <point x="274" y="465" type="curve" smooth="yes"/>
      <point x="238" y="465"/>
      <point x="171" y="405"/>
      <point x="151" y="387" type="curve"/>
      <point x="151" y="290" type="line"/>
      <point x="151" y="354"/>
      <point x="179" y="393"/>
      <point x="225" y="393" type="curve" smooth="yes"/>
      <point x="277" y="393"/>
      <point x="315" y="348"/>
      <point x="315" y="266" type="curve" smooth="yes"/>
      <point x="315" y="240"/>
      <point x="318" y="120"/>
    </contour>
    <component base="l"/>
  </outline>
</glyph>
<glyph name="i" format="2">
  <advance width="217"/>
  <unicode hex="0069"/>
  <outline>
    <contour>
      <point x="62" y="-16" type="curve"/>
      <point x="157" y="6" type="line"/>
      <point x="155" y="46"/>
      <point x="155" y="78"/>
      <point x="155" y="166" type="curve" smooth="yes"/>
      <point x="155" y="325" type="line" smooth="yes"/>
      <point x="155" y="372"/>
      <point x="158" y="418"/>
      <point x="160" y="465" type="curve"/>
      <point x="62" y="439" type="line"/>
      <point x="65" y="412"/>
      <point x="66" y="372"/>
      <point x="66" y="321" type="curve" smooth="yes"/>
      <point x="66" y="114" type="line" smooth="yes"/>
      <point x="66" y="61"/>
      <point x="64" y="12"/>
    </contour>
    <contour>
      <point x="64" y="511" type="line"/>
      <point x="142" y="525" type="line"/>
      <point x="199" y="633" type="line"/>
      <point x="194" y="639" type="line"/>
      <point x="99" y="615" type="line"/>
      <point x="60" y="516" type="line"/>
    </contour>
  </outline>
</glyph>
<glyph name="j" format="2">
  <advance width="217"/>
  <unicode hex="006A"/>
  <outline>
    <contour>
      <point x="11" y="-222" type="curve"/>
      <point x="35" y="-245" type="line"/>
      <point x="74" y="-209"/>
      <point x="151" y="-157"/>
      <point x="151" y="-51" type="curve" smooth="yes"/>
      <point x="151" y="325" type="line" smooth="yes"/>
      <point x="151" y="372"/>
      <point x="154" y="418"/>
      <point x="156" y="465" type="curve"/>
      <point x="58" y="439" type="line"/>
      <point x="61" y="412"/>
      <point x="62" y="372"/>
      <point x="62" y="321" type="curve" smooth="yes"/>
      <point x="62" y="-56" type="line" smooth="yes"/>
      <point x="62" y="-125"/>
      <point x="54" y="-180"/>
    </contour>
    <contour>
      <point x="60" y="504" type="line"/>
      <point x="143" y="518" type="line"/>
      <point x="199" y="637" type="line"/>
      <point x="194" y="645" type="line"/>
      <point x="93" y="621" type="line"/>
      <point x="56" y="511" type="line"/>
    </contour>
  </outline>
</glyph>
<glyph name="l" format="2">
  <advance width="217"/>
  <unicode hex="006C"/>
  <outline>
    <contour>
      <point x="60" y="-12" type="curve"/>
      <point x="156" y="5" type="line"/>
      <point x="153" y="66"/>
      <point x="154" y="164"/>
      <point x="154" y="316" type="curve" smooth="yes"/>
      <point x="154" y="407" type="line" smooth="yes"/>
      <point x="154" y="523"/>
      <point x="154" y="627"/>
      <point x="157" y="725" type="curve"/>
      <point x="61" y="704" type="line"/>
      <point x="63" y="663"/>
      <point x="64" y="592"/>
      <point x="64" y="456" type="curve" smooth="yes"/>
      <point x="64" y="219" type="line" smooth="yes"/>
      <point x="64" y="138"/>
      <point x="62" y="31"/>
    </contour>
  </outline>
</glyph>
<glyph name="m" format="2">
  <advance width="691"/>
  <unicode hex="006D"/>
  <outline>
    <contour>
      <point x="60" y="-15" type="curve"/>
      <point x="154" y="1" type="line"/>
      <point x="151" y="62"/>
      <point x="152" y="124"/>
      <point x="152" y="185" type="curve" smooth="yes"/>
      <point x="152" y="290" type="line" smooth="yes"/>
      <point x="152" y="354"/>
      <point x="177" y="393"/>
      <point x="220" y="393" type="curve" smooth="yes"/>
      <point x="267" y="393"/>
      <point x="305" y="348"/>
      <point x="305" y="266" type="curve" smooth="yes"/>
      <point x="305" y="240"/>
      <point x="308" y="120"/>
      <point x="302" y="-13" type="curve"/>
      <point x="396" y="1" type="line"/>
      <point x="393" y="53"/>
      <point x="394" y="107"/>
      <point x="394" y="159" type="curve" smooth="yes"/>
      <point x="394" y="320" type="line"/>
      <point x="401" y="367"/>
      <point x="424" y="393"/>
      <point x="460" y="393" type="curve" smooth="yes"/>
      <point x="507" y="393"/>
      <point x="545" y="348"/>
      <point x="545" y="266" type="curve" smooth="yes"/>
      <point x="545" y="240"/>
      <point x="548" y="120"/>
      <point x="542" y="-13" type="curve"/>
      <point x="636" y="1" type="line"/>
      <point x="633" y="53"/>
      <point x="634" y="107"/>
      <point x="634" y="159" type="curve" smooth="yes"/>
      <point x="634" y="330" type="line" smooth="yes"/>
      <point x="634" y="415"/>
      <point x="546" y="465"/>
      <point x="509" y="465" type="curve" smooth="yes"/>
      <point x="471" y="465"/>
      <point x="410" y="408"/>
      <point x="382" y="382" type="curve"/>
      <point x="357" y="434"/>
      <point x="298" y="465"/>
      <point x="269" y="465" type="curve" smooth="yes"/>
      <point x="233" y="465"/>
      <point x="172" y="405"/>
      <point x="153" y="387" type="curve"/>
      <point x="157" y="465" type="line"/>
      <point x="61" y="449" type="line"/>
      <point x="63" y="408"/>
      <point x="63" y="337"/>
      <point x="63" y="166" type="curve" smooth="yes"/>
      <point x="63" y="106"/>
      <point x="63" y="45"/>
    </contour>
  </outline>
</glyph>
<glyph name="n" format="2">
  <advance width="461"/>
  <unicode hex="006E"/>
  <outline>
    <contour>
      <point x="60" y="-15" type="curve"/>
      <point x="154" y="1" type="line"/>
      <point x="151" y="62"/>
      <point x="152" y="124"/>
      <point x="152" y="185" type="curve" smooth="yes"/>
      <point x="152" y="290" type="line" smooth="yes"/>
      <point x="152" y="354"/>
      <point x="179" y="393"/>
      <point x="225" y="393" type="curve" smooth="yes"/>
      <point x="277" y="393"/>
      <point x="315" y="348"/>
      <point x="315" y="284" type="curve" smooth="yes"/>
      <point x="315" y="240"/>
      <point x="318" y="120"/>
      <point x="312" y="-13" type="curve"/>
      <point x="406" y="1" type="line"/>
      <point x="403" y="53"/>
      <point x="404" y="107"/>
      <point x="404" y="159" type="curve" smooth="yes"/>
      <point x="404" y="330" type="line" smooth="yes"/>
      <point x="404" y="415"/>
      <point x="316" y="465"/>
      <point x="274" y="465" type="curve" smooth="yes"/>
      <point x="238" y="465"/>
      <point x="173" y="405"/>
      <point x="153" y="387" type="curve"/>
      <point x="157" y="465" type="line"/>
      <point x="61" y="449" type="line"/>
      <point x="63" y="408"/>
      <point x="63" y="337"/>
      <point x="63" y="166" type="curve" smooth="yes"/>
      <point x="63" y="106"/>
      <point x="63" y="45"/>
    </contour>
  </outline>
</glyph>
<glyph name="o" format="2">
  <advance width="470"/>
  <unicode hex="006F"/>
  <outline>
    <contour>
      <point x="220" y="-15" type="curve" smooth="yes"/>
      <point x="299" y="-15"/>
      <point x="450" y="84"/>
      <point x="450" y="229" type="curve" smooth="yes"/>
      <point x="450" y="326"/>
      <point x="353" y="465"/>
      <point x="237" y="465" type="curve" smooth="yes"/>
      <point x="158" y="465"/>
      <point x="20" y="351"/>
      <point x="20" y="207" type="curve" smooth="yes"/>
      <point x="20" y="87"/>
      <point x="138" y="-15"/>
    </contour>
    <contour>
      <point x="268" y="65" type="curve" smooth="yes"/>
      <point x="176" y="65"/>
      <point x="94" y="164"/>
      <point x="94" y="267" type="curve" smooth="yes"/>
      <point x="94" y="337"/>
      <point x="126" y="384"/>
      <point x="192" y="384" type="curve" smooth="yes"/>
      <point x="283" y="384"/>
      <point x="375" y="263"/>
      <point x="375" y="166" type="curve" smooth="yes"/>
      <point x="375" y="108"/>
      <point x="332" y="65"/>
    </contour>
  </outline>
</glyph>
<glyph name="p" format="2">
  <advance width="474"/>
  <unicode hex="0070"/>
  <outline>
    <contour>
      <point x="50" y="-245" type="curve"/>
      <point x="153" y="-218" type="line"/>
      <point x="151" y="-177"/>
      <point x="150" y="-114"/>
      <point x="150" y="-40" type="curve" smooth="yes"/>
      <point x="150" y="28" type="line"/>
      <point x="182" y="13"/>
      <point x="211" y="4"/>
      <point x="240" y="4" type="curve" smooth="yes"/>
      <point x="303" y="4"/>
      <point x="454" y="103"/>
      <point x="454" y="249" type="curve" smooth="yes"/>
      <point x="454" y="357"/>
      <point x="373" y="465"/>
      <point x="276" y="465" type="curve" smooth="yes"/>
      <point x="250" y="465"/>
      <point x="187" y="421"/>
      <point x="150" y="387" type="curve"/>
      <point x="155" y="466" type="line"/>
      <point x="59" y="449" type="line"/>
      <point x="62" y="388"/>
      <point x="60" y="318"/>
      <point x="60" y="257" type="curve" smooth="yes"/>
      <point x="60" y="78" type="line" smooth="yes"/>
      <point x="60" y="-31"/>
      <point x="57" y="-136"/>
    </contour>
    <contour>
      <point x="279" y="74" type="curve" smooth="yes"/>
      <point x="248" y="74"/>
      <point x="193" y="90"/>
      <point x="150" y="123" type="curve"/>
      <point x="150" y="275" type="line" smooth="yes"/>
      <point x="150" y="354"/>
      <point x="182" y="395"/>
      <point x="223" y="395" type="curve" smooth="yes"/>
      <point x="283" y="395"/>
      <point x="368" y="313"/>
      <point x="368" y="181" type="curve" smooth="yes"/>
      <point x="368" y="125"/>
      <point x="332" y="74"/>
    </contour>
  </outline>
</glyph>
<glyph name="q" format="2">
  <advance width="468"/>
  <unicode hex="0071"/>
  <outline>
    <contour>
      <point x="321" y="-245" type="curve"/>
      <point x="423" y="-214" type="line"/>
      <point x="419" y="-158"/>
      <point x="414" y="8"/>
      <point x="414" y="88" type="curve" smooth="yes"/>
      <point x="414" y="301" type="line" smooth="yes"/>
      <point x="414" y="357"/>
      <point x="417" y="429"/>
      <point x="421" y="470" type="curve"/>
      <point x="413" y="474" type="line"/>
      <point x="333" y="438" type="line"/>
      <point x="307" y="449"/>
      <point x="267" y="465"/>
      <point x="229" y="465" type="curve" smooth="yes"/>
      <point x="170" y="465"/>
      <point x="20" y="365"/>
      <point x="20" y="213" type="curve" smooth="yes"/>
      <point x="20" y="75"/>
      <point x="125" y="-17"/>
      <point x="198" y="-17" type="curve" smooth="yes"/>
      <point x="226" y="-17"/>
      <point x="286" y="39"/>
      <point x="324" y="69" type="curve"/>
      <point x="325" y="-42"/>
      <point x="324" y="-134"/>
    </contour>
    <contour>
      <point x="238" y="67" type="curve" smooth="yes"/>
      <point x="186" y="67"/>
      <point x="101" y="130"/>
      <point x="101" y="255" type="curve" smooth="yes"/>
      <point x="101" y="338"/>
      <point x="133" y="400"/>
      <point x="184" y="400" type="curve" smooth="yes"/>
      <point x="236" y="400"/>
      <point x="301" y="356"/>
      <point x="323" y="340" type="curve"/>
      <point x="323" y="151" type="line" smooth="yes"/>
      <point x="323" y="110"/>
      <point x="290" y="67"/>
    </contour>
  </outline>
</glyph>
<glyph name="r" format="2">
  <advance width="305"/>
  <unicode hex="0072"/>
  <outline>
    <contour>
      <point x="60" y="-15" type="curve"/>
      <point x="153" y="2" type="line"/>
      <point x="150" y="63"/>
      <point x="151" y="131"/>
      <point x="151" y="192" type="curve" smooth="yes"/>
      <point x="151" y="295" type="line" smooth="yes"/>
      <point x="151" y="351"/>
      <point x="168" y="376"/>
      <point x="187" y="376" type="curve" smooth="yes"/>
      <point x="209" y="376"/>
      <point x="220" y="344"/>
      <point x="231" y="297" type="curve"/>
      <point x="305" y="365" type="line"/>
      <point x="294" y="410"/>
      <point x="272" y="465"/>
      <point x="234" y="465" type="curve" smooth="yes"/>
      <point x="210" y="465"/>
      <point x="167" y="412"/>
      <point x="153" y="394" type="curve"/>
      <point x="155" y="465" type="line"/>
      <point x="61" y="447" type="line"/>
      <point x="63" y="406"/>
      <point x="61" y="281"/>
      <point x="62" y="204" type="curve" smooth="yes"/>
      <point x="64" y="84"/>
      <point x="62" y="57"/>
    </contour>
  </outline>
</glyph>
<glyph name="s" format="2">
  <advance width="315"/>
  <unicode hex="0073"/>
  <outline>
    <contour>
      <point x="143" y="-15" type="curve" smooth="yes"/>
      <point x="170" y="-15"/>
      <point x="287" y="67"/>
      <point x="287" y="155" type="curve" smooth="yes"/>
      <point x="287" y="222"/>
      <point x="225" y="245"/>
      <point x="182" y="277" type="curve" smooth="yes"/>
      <point x="145" y="303"/>
      <point x="102" y="329"/>
      <point x="102" y="355" type="curve" smooth="yes"/>
      <point x="102" y="374"/>
      <point x="118" y="387"/>
      <point x="143" y="387" type="curve" smooth="yes"/>
      <point x="177" y="387"/>
      <point x="209" y="364"/>
      <point x="234" y="346" type="curve"/>
      <point x="295" y="418" type="line"/>
      <point x="261" y="446"/>
      <point x="225" y="465"/>
      <point x="190" y="465" type="curve" smooth="yes"/>
      <point x="150" y="465"/>
      <point x="38" y="381"/>
      <point x="38" y="304" type="curve" smooth="yes"/>
      <point x="38" y="263"/>
      <point x="69" y="233"/>
      <point x="121" y="199" type="curve" smooth="yes"/>
      <point x="187" y="157"/>
      <point x="220" y="132"/>
      <point x="220" y="99" type="curve" smooth="yes"/>
      <point x="220" y="77"/>
      <point x="202" y="67"/>
      <point x="181" y="67" type="curve" smooth="yes"/>
      <point x="142" y="67"/>
      <point x="112" y="84"/>
      <point x="82" y="108" type="curve"/>
      <point x="25" y="32" type="line"/>
      <point x="61" y="-1"/>
      <point x="103" y="-15"/>
    </contour>
  </outline>
</glyph>
<glyph name="t" format="2">
  <advance width="254"/>
  <unicode hex="0074"/>
  <outline>
    <contour>
      <point x="131" y="-15" type="curve" smooth="yes"/>
      <point x="166" y="-15"/>
      <point x="205" y="19"/>
      <point x="249" y="65" type="curve"/>
      <point x="227" y="89" type="line"/>
      <point x="214" y="76"/>
      <point x="190" y="58"/>
      <point x="177" y="58" type="curve" smooth="yes"/>
      <point x="162" y="58"/>
      <point x="149" y="67"/>
      <point x="149" y="109" type="curve" smooth="yes"/>
      <point x="149" y="371" type="line"/>
      <point x="210" y="372" type="line"/>
      <point x="245" y="456" type="line"/>
      <point x="217" y="453"/>
      <point x="179" y="452"/>
      <point x="151" y="451" type="curve"/>
      <point x="157" y="578" type="line"/>
      <point x="65" y="569" type="line"/>
      <point x="65" y="451" type="line"/>
      <point x="25" y="383" type="line"/>
      <point x="31" y="371" type="line"/>
      <point x="65" y="371" type="line"/>
      <point x="61" y="244"/>
      <point x="60" y="72"/>
      <point x="60" y="60" type="curve" smooth="yes"/>
      <point x="60" y="21"/>
      <point x="97" y="-15"/>
    </contour>
  </outline>
</glyph>
<glyph name="v" format="2">
  <advance width="414"/>
  <unicode hex="0076"/>
  <outline>
    <contour>
      <point x="183" y="-15" type="curve"/>
      <point x="228" y="3" type="line"/>
      <point x="287" y="160"/>
      <point x="342" y="309"/>
      <point x="409" y="466" type="curve"/>
      <point x="326" y="451" type="line"/>
      <point x="225" y="134" type="line"/>
      <point x="96" y="465" type="line"/>
      <point x="5" y="438" type="line"/>
      <point x="146" y="99" type="line" smooth="yes"/>
      <point x="159" y="67"/>
      <point x="174" y="22"/>
    </contour>
  </outline>
</glyph>
<glyph name="w" format="2">
  <advance width="559"/>
  <unicode hex="0077"/>
  <outline>
    <contour>
      <point x="147" y="-15" type="curve"/>
      <point x="202" y="3" type="line"/>
      <point x="277" y="293" type="line"/>
      <point x="364" y="-15" type="line"/>
      <point x="416" y="9" type="line"/>
      <point x="465" y="185" type="line" smooth="yes"/>
      <point x="490" y="275"/>
      <point x="525" y="380"/>
      <point x="554" y="465" type="curve"/>
      <point x="479" y="440" type="line"/>
      <point x="399" y="148" type="line"/>
      <point x="316" y="465" type="line"/>
      <point x="272" y="455" type="line"/>
      <point x="187" y="141" type="line"/>
      <point x="93" y="465" type="line"/>
      <point x="5" y="439" type="line"/>
      <point x="105" y="131" type="line" smooth="yes"/>
      <point x="121" y="82"/>
      <point x="138" y="22"/>
    </contour>
  </outline>
</glyph>
<glyph name="x" format="2">
  <advance width="377"/>
  <unicode hex="0078"/>
  <outline>
    <contour>
      <point x="16" y="-12" type="line"/>
      <point x="91" y="1" type="line"/>
      <point x="177" y="170" type="line"/>
      <point x="271" y="-9" type="line"/>
      <point x="367" y="10" type="line"/>
      <point x="320" y="86"/>
      <point x="271" y="167"/>
      <point x="228" y="243" type="curve"/>
      <point x="358" y="465" type="line"/>
      <point x="279" y="445" type="line"/>
      <point x="201" y="289" type="line"/>
      <point x="105" y="465" type="line"/>
      <point x="15" y="444" type="line"/>
      <point x="149" y="214" type="line"/>
    </contour>
  </outline>
</glyph>
<glyph name="y" format="2">
  <advance width="417"/>
  <unicode hex="0079"/>
  <outline>
    <contour>
      <point x="88" y="-245" type="line"/>
      <point x="168" y="-231" type="line"/>
      <point x="243" y="4" type="line" smooth="yes"/>
      <point x="294" y="164"/>
      <point x="348" y="310"/>
      <point x="412" y="465" type="curve"/>
      <point x="339" y="448" type="line"/>
      <point x="231" y="127" type="line"/>
      <point x="99" y="465" type="line"/>
      <point x="5" y="438" type="line"/>
      <point x="186" y="14" type="line"/>
    </contour>
  </outline>
</glyph>
<glyph name="z" format="2">
  <advance width="346"/>
  <unicode hex="007A"/>
  <outline>
    <contour>
      <point x="285" y="-6" type="curve"/>
      <point x="336" y="83" type="line"/>
      <point x="134" y="79" type="line"/>
      <point x="329" y="440" type="line"/>
      <point x="321" y="452" type="line"/>
      <point x="225" y="449"/>
      <point x="168" y="446"/>
      <point x="76" y="454" type="curve"/>
      <point x="25" y="371" type="line"/>
      <point x="231" y="371" type="line"/>
      <point x="32" y="12" type="line"/>
      <point x="41" y="0" type="line"/>
      <point x="107" y="0"/>
      <point x="208" y="2"/>
    </contour>
  </outline>
</glyph>
<glyph name="braceleft" format="2">
  <advance width="349"/>
  <unicode hex="007B"/>
  <outline>
    <contour>
      <point x="249" y="-170" type="curve" smooth="yes"/>
      <point x="287" y="-170"/>
      <point x="304" y="-166"/>
      <point x="328" y="-159" type="curve"/>
      <point x="316" y="-103" type="line"/>
      <point x="295" y="-107"/>
      <point x="272" y="-112"/>
      <point x="249" y="-112" type="curve" smooth="yes"/>
      <point x="184" y="-112"/>
      <point x="159" y="-92"/>
      <point x="159" y="-42" type="curve" smooth="yes"/>
      <point x="159" y="10"/>
      <point x="221" y="130"/>
      <point x="221" y="180" type="curve" smooth="yes"/>
      <point x="221" y="229"/>
      <point x="194" y="267"/>
      <point x="150" y="299" type="curve"/>
      <point x="194" y="333"/>
      <point x="217" y="364"/>
      <point x="217" y="414" type="curve" smooth="yes"/>
      <point x="217" y="482"/>
      <point x="156" y="580"/>
      <point x="156" y="637" type="curve" smooth="yes"/>
      <point x="156" y="682"/>
      <point x="185" y="709"/>
      <point x="238" y="709" type="curve" smooth="yes"/>
      <point x="270" y="709"/>
      <point x="295" y="702"/>
      <point x="312" y="695" type="curve"/>
      <point x="329" y="752" type="line"/>
      <point x="307" y="758"/>
      <point x="290" y="764"/>
      <point x="238" y="764" type="curve" smooth="yes"/>
      <point x="135" y="764"/>
      <point x="91" y="705"/>
      <point x="91" y="638" type="curve" smooth="yes"/>
      <point x="91" y="580"/>
      <point x="153" y="446"/>
      <point x="153" y="412" type="curve" smooth="yes"/>
      <point x="153" y="360"/>
      <point x="119" y="330"/>
      <point x="40" y="297" type="curve"/>
      <point x="120" y="270"/>
      <point x="153" y="233"/>
      <point x="153" y="183" type="curve" smooth="yes"/>
      <point x="153" y="111"/>
      <point x="91" y="32"/>
      <point x="91" y="-44" type="curve" smooth="yes"/>
      <point x="91" y="-120"/>
      <point x="134" y="-170"/>
    </contour>
  </outline>
</glyph>
<glyph name="bar" format="2">
  <advance width="200"/>
  <unicode hex="007C"/>
  <outline>
    <contour>
      <point x="70" y="-168" type="line"/>
      <point x="130" y="-168" type="line"/>
      <point x="130" y="759" type="line"/>
      <point x="70" y="759" type="line"/>
    </contour>
  </outline>
</glyph>
<glyph name="braceright" format="2">
  <advance width="349"/>
  <unicode hex="007D"/>
  <outline>
    <contour>
      <point x="100" y="-170" type="curve" smooth="yes"/>
      <point x="215" y="-170"/>
      <point x="258" y="-120"/>
      <point x="258" y="-44" type="curve" smooth="yes"/>
      <point x="258" y="32"/>
      <point x="196" y="111"/>
      <point x="196" y="183" type="curve" smooth="yes"/>
      <point x="196" y="233"/>
      <point x="229" y="270"/>
      <point x="309" y="297" type="curve"/>
      <point x="230" y="330"/>
      <point x="196" y="360"/>
      <point x="196" y="412" type="curve" smooth="yes"/>
      <point x="196" y="446"/>
      <point x="258" y="580"/>
      <point x="258" y="638" type="curve" smooth="yes"/>
      <point x="258" y="705"/>
      <point x="214" y="764"/>
      <point x="111" y="764" type="curve" smooth="yes"/>
      <point x="59" y="764"/>
      <point x="42" y="758"/>
      <point x="20" y="752" type="curve"/>
      <point x="37" y="695" type="line"/>
      <point x="54" y="702"/>
      <point x="79" y="709"/>
      <point x="111" y="709" type="curve" smooth="yes"/>
      <point x="164" y="709"/>
      <point x="193" y="682"/>
      <point x="193" y="637" type="curve" smooth="yes"/>
      <point x="193" y="580"/>
      <point x="132" y="482"/>
      <point x="132" y="414" type="curve" smooth="yes"/>
      <point x="132" y="364"/>
      <point x="155" y="333"/>
      <point x="199" y="299" type="curve"/>
      <point x="155" y="267"/>
      <point x="128" y="229"/>
      <point x="128" y="180" type="curve" smooth="yes"/>
      <point x="128" y="130"/>
      <point x="190" y="10"/>
      <point x="190" y="-42" type="curve" smooth="yes"/>
      <point x="190" y="-92"/>
      <point x="165" y="-112"/>
      <point x="100" y="-112" type="curve" smooth="yes"/>
      <point x="77" y="-112"/>
      <point x="54" y="-107"/>
      <point x="33" y="-103" type="curve"/>
      <point x="21" y="-159" type="line"/>
      <point x="45" y="-166"/>
      <point x="62" y="-170"/>
    </contour>
  </outline>
</glyph>
<glyph name="exclamdown" format="2">
  <advance width="257"/>
  <unicode hex="00A1"/>
  <outline>
    <contour>
      <point x="170" y="245" type="curve"/>
      <point x="82" y="295" type="line"/>
      <point x="85" y="129"/>
      <point x="86" y="-40"/>
      <point x="83" y="-206" type="curve"/>
      <point x="173" y="-256" type="line"/>
      <point x="169" y="-89"/>
      <point x="168" y="108"/>
    </contour>
    <component base="period" yScale="-1" xOffset="30" yOffset="447"/>
  </outline>
</glyph>
<glyph name="cent" format="2">
  <advance width="376"/>
  <unicode hex="00A2"/>
  <outline>
    <contour>
      <point x="179" y="-50" type="curve"/>
      <point x="243" y="-21" type="line"/>
      <point x="240" y="8"/>
      <point x="237" y="112"/>
      <point x="237" y="185" type="curve" smooth="yes"/>
      <point x="237" y="438" type="line" smooth="yes"/>
      <point x="237" y="481"/>
      <point x="242" y="582"/>
      <point x="245" y="654" type="curve"/>
      <point x="185" y="621" type="line"/>
      <point x="186" y="551"/>
      <point x="189" y="482"/>
      <point x="189" y="412" type="curve" smooth="yes"/>
      <point x="189" y="120" type="line" smooth="yes"/>
      <point x="189" y="62"/>
      <point x="182" y="11"/>
    </contour>
    <component base="c" yOffset="90"/>
  </outline>
</glyph>
<glyph name="sterling" format="2">
  <advance width="459"/>
  <unicode hex="00A3"/>
  <outline>
    <contour>
      <point x="401" y="2" type="curve"/>
      <point x="429" y="102" type="line"/>
      <point x="318" y="83"/>
      <point x="206" y="86"/>
      <point x="115" y="80" type="curve"/>
      <point x="253" y="132"/>
      <point x="254" y="194"/>
      <point x="239" y="266" type="curve"/>
      <point x="362" y="266" type="line"/>
      <point x="389" y="335" type="line"/>
      <point x="376" y="334"/>
      <point x="366" y="334"/>
      <point x="353" y="333" type="curve" smooth="yes"/>
      <point x="312" y="332"/>
      <point x="268" y="330"/>
      <point x="227" y="330" type="curve"/>
      <point x="239" y="299"/>
      <point x="194" y="406"/>
      <point x="194" y="463" type="curve" smooth="yes"/>
      <point x="194" y="550"/>
      <point x="239" y="560"/>
      <point x="285" y="560" type="curve" smooth="yes"/>
      <point x="332" y="560"/>
      <point x="371" y="538"/>
      <point x="392" y="520" type="curve"/>
      <point x="428" y="607" type="line"/>
      <point x="396" y="632"/>
      <point x="341" y="642"/>
      <point x="314" y="642" type="curve" smooth="yes"/>
      <point x="258" y="642"/>
      <point x="198" y="606"/>
      <point x="158" y="567" type="curve" smooth="yes"/>
      <point x="98" y="509"/>
      <point x="102" y="474"/>
      <point x="102" y="439" type="curve" smooth="yes"/>
      <point x="102" y="400"/>
      <point x="117" y="360"/>
      <point x="129" y="330" type="curve"/>
      <point x="66" y="330" type="line"/>
      <point x="40" y="263" type="line"/>
      <point x="56" y="263"/>
      <point x="72" y="264"/>
      <point x="90" y="265" type="curve" smooth="yes"/>
      <point x="108" y="265"/>
      <point x="129" y="266"/>
      <point x="148" y="266" type="curve"/>
      <point x="169" y="179"/>
      <point x="155" y="126"/>
      <point x="46" y="67" type="curve"/>
      <point x="54" y="3" type="line"/>
      <point x="167" y="6"/>
      <point x="285" y="6"/>
    </contour>
  </outline>
</glyph>
<glyph name="yen" format="2">
  <advance width="545"/>
  <unicode hex="00A5"/>
  <outline>
    <contour>
      <point x="230" y="-14" type="curve"/>
      <point x="333" y="10" type="line"/>
      <point x="329" y="109"/>
      <point x="327" y="209"/>
      <point x="327" y="306" type="curve"/>
      <point x="497" y="636" type="line"/>
      <point x="413" y="626" type="line"/>
      <point x="294" y="374" type="line"/>
      <point x="123" y="641" type="line"/>
      <point x="30" y="613" type="line"/>
      <point x="233" y="305" type="line"/>
      <point x="234" y="198"/>
      <point x="235" y="91"/>
    </contour>
    <contour>
      <point x="66" y="195" type="line"/>
      <point x="264" y="200" type="line"/>
      <point x="496" y="202" type="line"/>
      <point x="503" y="250" type="line"/>
      <point x="61" y="244" type="line"/>
    </contour>
    <contour>
      <point x="241" y="307" type="line"/>
      <point x="215" y="352" type="line"/>
      <point x="51" y="352" type="line"/>
      <point x="56" y="303" type="line"/>
    </contour>
    <contour>
      <point x="322" y="355" type="line"/>
      <point x="304" y="308" type="line"/>
      <point x="508" y="310" type="line"/>
      <point x="515" y="355" type="line"/>
    </contour>
  </outline>
</glyph>
<glyph name="copyright" format="2">
  <advance width="784"/>
  <unicode hex="00A9"/>
  <outline>
    <contour>
      <point x="392" y="-9" type="curve" smooth="yes"/>
      <point x="592" y="-9"/>
      <point x="754" y="153"/>
      <point x="754" y="353" type="curve" smooth="yes"/>
      <point x="754" y="553"/>
      <point x="592" y="715"/>
      <point x="392" y="715" type="curve" smooth="yes"/>
      <point x="192" y="715"/>
      <point x="30" y="553"/>
      <point x="30" y="353" type="curve" smooth="yes"/>
      <point x="30" y="153"/>
      <point x="192" y="-9"/>
    </contour>
    <contour>
      <point x="418" y="117" type="curve"/>
      <point x="456" y="124"/>
      <point x="507" y="150"/>
      <point x="544" y="192" type="curve"/>
      <point x="522" y="217" type="line"/>
      <point x="500" y="195"/>
      <point x="465" y="191"/>
      <point x="445" y="191" type="curve" smooth="yes"/>
      <point x="368" y="191"/>
      <point x="273" y="265"/>
      <point x="273" y="394" type="curve" smooth="yes"/>
      <point x="273" y="473"/>
      <point x="317" y="532"/>
      <point x="382" y="532" type="curve" smooth="yes"/>
      <point x="427" y="532"/>
      <point x="473" y="501"/>
      <point x="497" y="479" type="curve"/>
      <point x="543" y="549" type="line"/>
      <point x="512" y="574"/>
      <point x="462" y="595"/>
      <point x="412" y="595" type="curve" smooth="yes"/>
      <point x="290" y="595"/>
      <point x="194" y="472"/>
      <point x="194" y="357" type="curve" smooth="yes"/>
      <point x="194" y="207"/>
      <point x="302" y="116"/>
    </contour>
    <contour>
      <point x="392" y="36" type="curve" smooth="yes"/>
      <point x="219" y="36"/>
      <point x="79" y="178"/>
      <point x="79" y="353" type="curve" smooth="yes"/>
      <point x="79" y="528"/>
      <point x="219" y="670"/>
      <point x="392" y="670" type="curve" smooth="yes"/>
      <point x="565" y="670"/>
      <point x="705" y="528"/>
      <point x="705" y="353" type="curve" smooth="yes"/>
      <point x="705" y="178"/>
      <point x="565" y="36"/>
    </contour>
  </outline>
</glyph>
<glyph name="registered" format="2">
  <advance width="465"/>
  <unicode hex="00AE"/>
  <outline>
    <contour>
      <point x="233" y="310" type="curve" smooth="yes"/>
      <point x="345" y="310"/>
      <point x="435" y="400"/>
      <point x="435" y="512" type="curve" smooth="yes"/>
      <point x="435" y="624"/>
      <point x="345" y="715"/>
      <point x="233" y="715" type="curve" smooth="yes"/>
      <point x="121" y="715"/>
      <point x="30" y="624"/>
      <point x="30" y="512" type="curve" smooth="yes"/>
      <point x="30" y="400"/>
      <point x="121" y="310"/>
    </contour>
    <contour>
      <point x="233" y="345" type="curve" smooth="yes"/>
      <point x="143" y="345"/>
      <point x="70" y="420"/>
      <point x="70" y="512" type="curve" smooth="yes"/>
      <point x="70" y="606"/>
      <point x="143" y="681"/>
      <point x="233" y="681" type="curve" smooth="yes"/>
      <point x="324" y="681"/>
      <point x="397" y="606"/>
      <point x="397" y="512" type="curve" smooth="yes"/>
      <point x="397" y="420"/>
      <point x="324" y="345"/>
    </contour>
    <contour>
      <point x="169" y="402" type="curve"/>
      <point x="214" y="411" type="line"/>
      <point x="213" y="453"/>
      <point x="212" y="495"/>
      <point x="212" y="537" type="curve" smooth="yes"/>
      <point x="212" y="561"/>
      <point x="213" y="580"/>
      <point x="213" y="605" type="curve"/>
      <point x="253" y="608"/>
      <point x="273" y="586"/>
      <point x="273" y="552" type="curve" smooth="yes"/>
      <point x="273" y="522"/>
      <point x="255" y="518"/>
      <point x="239" y="520" type="curve"/>
      <point x="216" y="504" type="line"/>
      <point x="241" y="469"/>
      <point x="268" y="427"/>
      <point x="283" y="402" type="curve"/>
      <point x="324" y="418" type="line"/>
      <point x="302" y="445"/>
      <point x="278" y="482"/>
      <point x="261" y="509" type="curve"/>
      <point x="291" y="520"/>
      <point x="313" y="538"/>
      <point x="313" y="572" type="curve" smooth="yes"/>
      <point x="313" y="607"/>
      <point x="281" y="631"/>
      <point x="235" y="631" type="curve" smooth="yes"/>
      <point x="207" y="631" type="line"/>
      <point x="170" y="617" type="line"/>
      <point x="171" y="594"/>
      <point x="171" y="516"/>
      <point x="171" y="482" type="curve" smooth="yes"/>
      <point x="171" y="459"/>
      <point x="170" y="412"/>
    </contour>
  </outline>
</glyph>
<glyph name="degree" format="2">
  <advance width="312"/>
  <unicode hex="00B0"/>
  <outline>
    <contour>
      <point x="156" y="393" type="curve" smooth="yes"/>
      <point x="226" y="393"/>
      <point x="282" y="449"/>
      <point x="282" y="519" type="curve" smooth="yes"/>
      <point x="282" y="588"/>
      <point x="226" y="645"/>
      <point x="156" y="645" type="curve" smooth="yes"/>
      <point x="87" y="645"/>
      <point x="30" y="588"/>
      <point x="30" y="519" type="curve" smooth="yes"/>
      <point x="30" y="449"/>
      <point x="87" y="393"/>
    </contour>
    <contour>
      <point x="156" y="439" type="curve" smooth="yes"/>
      <point x="113" y="439"/>
      <point x="79" y="475"/>
      <point x="79" y="519" type="curve" smooth="yes"/>
      <point x="79" y="564"/>
      <point x="113" y="600"/>
      <point x="156" y="600" type="curve" smooth="yes"/>
      <point x="200" y="600"/>
      <point x="234" y="564"/>
      <point x="234" y="519" type="curve" smooth="yes"/>
      <point x="234" y="475"/>
      <point x="200" y="439"/>
    </contour>
  </outline>
</glyph>
<glyph name="multiply" format="2">
  <advance width="381"/>
  <unicode hex="00D7"/>
  <note>
multiply
</note>
  <outline>
    <contour>
      <point x="47" y="225" type="curve"/>
      <point x="99" y="166" type="line"/>
      <point x="126" y="202"/>
      <point x="162" y="244"/>
      <point x="192" y="278" type="curve"/>
      <point x="226" y="242"/>
      <point x="256" y="205"/>
      <point x="285" y="168" type="curve"/>
      <point x="337" y="225" type="line"/>
      <point x="300" y="257"/>
      <point x="268" y="288"/>
      <point x="235" y="320" type="curve"/>
      <point x="243" y="329"/>
      <point x="250" y="336"/>
      <point x="257" y="344" type="curve" smooth="yes"/>
      <point x="281" y="370"/>
      <point x="303" y="395"/>
      <point x="333" y="420" type="curve"/>
      <point x="290" y="480" type="line"/>
      <point x="277" y="466"/>
      <point x="264" y="450"/>
      <point x="251" y="434" type="curve" smooth="yes"/>
      <point x="233" y="412"/>
      <point x="215" y="391"/>
      <point x="194" y="370" type="curve"/>
      <point x="160" y="404"/>
      <point x="128" y="441"/>
      <point x="99" y="478" type="curve"/>
      <point x="44" y="419" type="line"/>
      <point x="81" y="387"/>
      <point x="115" y="354"/>
      <point x="148" y="322" type="curve"/>
      <point x="116" y="288"/>
      <point x="83" y="255"/>
    </contour>
  </outline>
</glyph>
<glyph name="circumflex" format="2">
  <advance width="500"/>
  <unicode hex="02C6"/>
  <outline>
    <contour>
      <point x="122" y="520" type="curve"/>
      <point x="174" y="520" type="line"/>
      <point x="241" y="601" type="line"/>
      <point x="264" y="576"/>
      <point x="292" y="544"/>
      <point x="304" y="520" type="curve"/>
      <point x="378" y="520" type="line"/>
      <point x="288" y="673" type="line"/>
      <point x="210" y="673" type="line"/>
      <point x="186" y="622"/>
      <point x="153" y="570"/>
    </contour>
  </outline>
</glyph>
<glyph name="tilde" format="2">
  <advance width="500"/>
  <unicode hex="02DC"/>
  <outline>
    <contour>
      <point x="115" y="529" type="curve"/>
      <point x="144" y="572"/>
      <point x="163" y="580"/>
      <point x="188" y="580" type="curve" smooth="yes"/>
      <point x="207" y="580"/>
      <point x="231" y="571"/>
      <point x="254" y="562" type="curve" smooth="yes"/>
      <point x="277" y="553"/>
      <point x="303" y="543"/>
      <point x="322" y="543" type="curve" smooth="yes"/>
      <point x="351" y="543"/>
      <point x="385" y="585"/>
      <point x="385" y="654" type="curve"/>
      <point x="371" y="630"/>
      <point x="348" y="615"/>
      <point x="329" y="615" type="curve" smooth="yes"/>
      <point x="310" y="615"/>
      <point x="290" y="623"/>
      <point x="270" y="631" type="curve" smooth="yes"/>
      <point x="249" y="639"/>
      <point x="225" y="648"/>
      <point x="203" y="648" type="curve" smooth="yes"/>
      <point x="163" y="648"/>
      <point x="113" y="582"/>
    </contour>
  </outline>
</glyph>
<glyph name="endash" format="2">
  <advance width="500"/>
  <unicode hex="2013"/>
  <outline>
    <contour>
      <point x="62" y="247" type="curve"/>
      <point x="20" y="178" type="line"/>
      <point x="157" y="182"/>
      <point x="342" y="183"/>
      <point x="437" y="182" type="curve"/>
      <point x="480" y="251" type="line"/>
      <point x="385" y="247"/>
      <point x="199" y="246"/>
    </contour>
  </outline>
</glyph>
<glyph name="emdash" format="2">
  <advance width="1000"/>
  <unicode hex="2014"/>
  <outline>
    <contour>
      <point x="62" y="243" type="curve"/>
      <point x="20" y="182" type="line"/>
      <point x="321" y="186"/>
      <point x="688" y="186"/>
      <point x="937" y="186" type="curve"/>
      <point x="980" y="247" type="line"/>
      <point x="731" y="243"/>
      <point x="363" y="243"/>
    </contour>
  </outline>
</glyph>
<glyph name="quotedblright" format="2">
  <advance width="320"/>
  <unicode hex="201D"/>
  <outline>
    <contour>
      <point x="185" y="523" type="curve"/>
      <point x="202" y="511" type="line"/>
      <point x="254" y="560"/>
      <point x="283" y="598"/>
      <point x="283" y="631" type="curve" smooth="yes"/>
      <point x="283" y="660"/>
      <point x="264" y="685"/>
      <point x="223" y="711" type="curve"/>
      <point x="169" y="667" type="line"/>
      <point x="202" y="655"/>
      <point x="217" y="629"/>
      <point x="217" y="600" type="curve" smooth="yes"/>
      <point x="217" y="579"/>
      <point x="207" y="554"/>
    </contour>
    <component base="quotesingle"/>
  </outline>
</glyph>
<glyph name="guilsinglleft" format="2">
  <advance width="216"/>
  <unicode hex="2039"/>
  <outline>
    <contour>
      <point x="124" y="95" type="curve"/>
      <point x="185" y="121" type="line"/>
      <point x="163" y="158"/>
      <point x="132" y="196"/>
      <point x="108" y="218" type="curve"/>
      <point x="132" y="245"/>
      <point x="160" y="281"/>
      <point x="186" y="326" type="curve"/>
      <point x="98" y="318" type="line"/>
      <point x="79" y="284"/>
      <point x="63" y="259"/>
      <point x="30" y="219" type="curve"/>
      <point x="67" y="178"/>
      <point x="98" y="136"/>
    </contour>
  </outline>
</glyph>
<glyph name="guilsinglright" format="2">
  <advance width="219"/>
  <unicode hex="203A"/>
  <outline>
    <contour>
      <point x="41" y="117" type="curve"/>
      <point x="104" y="95" type="line"/>
      <point x="127" y="138"/>
      <point x="155" y="182"/>
      <point x="189" y="226" type="curve"/>
      <point x="153" y="263"/>
      <point x="136" y="287"/>
      <point x="114" y="320" type="curve"/>
      <point x="30" y="321" type="line"/>
      <point x="59" y="278"/>
      <point x="83" y="246"/>
      <point x="108" y="221" type="curve"/>
      <point x="86" y="197"/>
      <point x="61" y="155"/>
    </contour>
  </outline>
</glyph>
<glyph name="euro" format="2">
  <advance width="627"/>
  <unicode hex="20AC"/>
  <outline>
    <contour>
      <point x="415" y="-9" type="curve"/>
      <point x="468" y="0"/>
      <point x="532" y="35"/>
      <point x="577" y="79" type="curve"/>
      <point x="560" y="100" type="line"/>
      <point x="520" y="69"/>
      <point x="472" y="66"/>
      <point x="448" y="66" type="curve" smooth="yes"/>
      <point x="335" y="66"/>
      <point x="195" y="178"/>
      <point x="195" y="373" type="curve" smooth="yes"/>
      <point x="195" y="492"/>
      <point x="260" y="581"/>
      <point x="356" y="581" type="curve" smooth="yes"/>
      <point x="418" y="581"/>
      <point x="482" y="541"/>
      <point x="520" y="507" type="curve"/>
      <point x="575" y="590" type="line"/>
      <point x="536" y="618"/>
      <point x="470" y="644"/>
      <point x="407" y="644" type="curve" smooth="yes"/>
      <point x="237" y="644"/>
      <point x="103" y="473"/>
      <point x="103" y="318" type="curve" smooth="yes"/>
      <point x="103" y="114"/>
      <point x="253" y="-10"/>
    </contour>
    <contour>
      <point x="58" y="389" type="curve"/>
      <point x="40" y="344" type="line"/>
      <point x="193" y="344"/>
      <point x="347" y="349"/>
      <point x="500" y="344" type="curve"/>
      <point x="526" y="397" type="line"/>
      <point x="372" y="394"/>
      <point x="212" y="389"/>
    </contour>
    <contour>
      <point x="38" y="281" type="curve"/>
      <point x="20" y="236" type="line"/>
      <point x="167" y="236"/>
      <point x="315" y="241"/>
      <point x="462" y="236" type="curve"/>
      <point x="488" y="289" type="line"/>
      <point x="340" y="286"/>
      <point x="186" y="281"/>
    </contour>
  </outline>
</glyph>
<glyph name="trademark" format="2">
  <advance width="601"/>
  <unicode hex="2122"/>
  <outline>
    <contour>
      <point x="92" y="372" type="curve"/>
      <point x="155" y="376" type="line"/>
      <point x="153" y="476"/>
      <point x="153" y="580"/>
      <point x="154" y="665" type="curve"/>
      <point x="164" y="665"/>
      <point x="174" y="665"/>
      <point x="185" y="665" type="curve" smooth="yes"/>
      <point x="192" y="665"/>
      <point x="201" y="665"/>
      <point x="207" y="665" type="curve"/>
      <point x="237" y="725" type="line"/>
      <point x="176" y="719"/>
      <point x="111" y="717"/>
      <point x="51" y="721" type="curve"/>
      <point x="20" y="663" type="line"/>
      <point x="96" y="665" type="line"/>
      <point x="97" y="562"/>
      <point x="96" y="462"/>
    </contour>
    <contour>
      <point x="389" y="365" type="curve"/>
      <point x="425" y="377" type="line"/>
      <point x="504" y="607" type="line"/>
      <point x="509" y="555"/>
      <point x="513" y="501"/>
      <point x="516" y="448" type="curve" smooth="yes"/>
      <point x="518" y="419"/>
      <point x="519" y="392"/>
      <point x="520" y="367" type="curve"/>
      <point x="581" y="380" type="line"/>
      <point x="575" y="431"/>
      <point x="552" y="678"/>
      <point x="551" y="725" type="curve"/>
      <point x="494" y="715" type="line"/>
      <point x="481" y="678"/>
      <point x="470" y="643"/>
      <point x="458" y="605" type="curve" smooth="yes"/>
      <point x="453" y="590"/>
      <point x="447" y="572"/>
      <point x="442" y="557" type="curve" smooth="yes"/>
      <point x="433" y="529"/>
      <point x="424" y="501"/>
      <point x="414" y="472" type="curve"/>
      <point x="362" y="628" type="line" smooth="yes"/>
      <point x="359" y="638"/>
      <point x="355" y="650"/>
      <point x="352" y="660" type="curve" smooth="yes"/>
      <point x="348" y="674"/>
      <point x="344" y="688"/>
      <point x="340" y="701" type="curve" smooth="yes"/>
      <point x="337" y="711"/>
      <point x="335" y="718"/>
      <point x="334" y="725" type="curve"/>
      <point x="275" y="709" type="line"/>
      <point x="268" y="629"/>
      <point x="258" y="544"/>
      <point x="249" y="465" type="curve" smooth="yes"/>
      <point x="245" y="434"/>
      <point x="241" y="401"/>
      <point x="239" y="372" type="curve"/>
      <point x="288" y="375" type="line"/>
      <point x="293" y="451"/>
      <point x="300" y="531"/>
      <point x="309" y="608" type="curve"/>
      <point x="339" y="530"/>
      <point x="366" y="440"/>
    </contour>
  </outline>
</glyph>
<glyph name="minus" format="2">
  <advance width="381"/>
  <unicode hex="2212"/>
  <note>
minus
</note>
  <outline>
    <contour>
      <point x="308" y="294" type="line"/>
      <point x="361" y="369" type="line"/>
      <point x="317" y="364"/>
      <point x="268" y="364"/>
      <point x="222" y="364" type="curve" smooth="yes"/>
      <point x="136" y="364" type="line" smooth="yes"/>
      <point x="111" y="364"/>
      <point x="85" y="365"/>
      <point x="60" y="368" type="curve"/>
      <point x="20" y="298" type="line"/>
    </contour>
  </outline>
</glyph>
<glyph name="fi" format="2">
  <advance width="455"/>
  <unicode hex="FB01"/>
  <outline>
    <contour>
      <point x="292" y="-16" type="curve"/>
      <point x="387" y="6" type="line"/>
      <point x="385" y="46"/>
      <point x="385" y="78"/>
      <point x="385" y="166" type="curve" smooth="yes"/>
      <point x="385" y="325" type="line" smooth="yes"/>
      <point x="385" y="372"/>
      <point x="388" y="418"/>
      <point x="390" y="465" type="curve"/>
      <point x="308" y="454"/>
      <point x="184" y="452"/>
      <point x="162" y="453" type="curve"/>
      <point x="162" y="614" type="line" smooth="yes"/>
      <point x="162" y="623"/>
      <point x="166" y="641"/>
      <point x="186" y="641" type="curve" smooth="yes"/>
      <point x="215" y="641"/>
      <point x="257" y="608"/>
      <point x="273" y="585" type="curve"/>
      <point x="335" y="648" type="line"/>
      <point x="316" y="670"/>
      <point x="278" y="711"/>
      <point x="242" y="711" type="curve" smooth="yes"/>
      <point x="193" y="711"/>
      <point x="73" y="601"/>
      <point x="73" y="548" type="curve" smooth="yes"/>
      <point x="73" y="443" type="line"/>
      <point x="35" y="383" type="line"/>
      <point x="40" y="371" type="line"/>
      <point x="72" y="371" type="line"/>
      <point x="72" y="212" type="line" smooth="yes"/>
      <point x="72" y="157"/>
      <point x="71" y="58"/>
      <point x="68" y="-15" type="curve"/>
      <point x="163" y="5" type="line"/>
      <point x="160" y="59"/>
      <point x="161" y="126"/>
      <point x="161" y="177" type="curve" smooth="yes"/>
      <point x="161" y="371" type="line"/>
      <point x="296" y="371" type="line"/>
      <point x="296" y="357"/>
      <point x="296" y="339"/>
      <point x="296" y="321" type="curve" smooth="yes"/>
      <point x="296" y="114" type="line" smooth="yes"/>
      <point x="296" y="61"/>
      <point x="294" y="12"/>
    </contour>
    <contour>
      <point x="297" y="506" type="line"/>
      <point x="375" y="525" type="line"/>
      <point x="437" y="634" type="line"/>
      <point x="432" y="640" type="line"/>
      <point x="340" y="615" type="line"/>
      <point x="293" y="511" type="line"/>
    </contour>
  </outline>
</glyph>
<glyph name="fl" format="2">
  <advance width="452"/>
  <unicode hex="FB02"/>
  <outline>
    <contour>
      <point x="68" y="-15" type="curve"/>
      <point x="163" y="5" type="line"/>
      <point x="160" y="59"/>
      <point x="161" y="126"/>
      <point x="161" y="177" type="curve" smooth="yes"/>
      <point x="161" y="371" type="line"/>
      <point x="221" y="371" type="line"/>
      <point x="264" y="456" type="line"/>
      <point x="161" y="451" type="line"/>
      <point x="161" y="574" type="line" smooth="yes"/>
      <point x="161" y="622"/>
      <point x="164" y="637"/>
      <point x="181" y="637" type="curve" smooth="yes"/>
      <point x="206" y="637"/>
      <point x="244" y="605"/>
      <point x="259" y="582" type="curve"/>
      <point x="323" y="648" type="line"/>
      <point x="304" y="663"/>
      <point x="277" y="685"/>
      <point x="232" y="711" type="curve"/>
      <point x="186" y="711"/>
      <point x="72" y="601"/>
      <point x="72" y="548" type="curve" smooth="yes"/>
      <point x="72" y="443" type="line"/>
      <point x="35" y="383" type="line"/>
      <point x="40" y="371" type="line"/>
      <point x="72" y="371" type="line"/>
      <point x="72" y="212" type="line" smooth="yes"/>
      <point x="72" y="157"/>
      <point x="71" y="58"/>
    </contour>
    <contour>
      <point x="292" y="-15" type="curve"/>
      <point x="387" y="5" type="line"/>
      <point x="384" y="66"/>
      <point x="385" y="164"/>
      <point x="385" y="316" type="curve" smooth="yes"/>
      <point x="385" y="407" type="line" smooth="yes"/>
      <point x="385" y="523"/>
      <point x="387" y="627"/>
      <point x="392" y="725" type="curve"/>
      <point x="293" y="666" type="line"/>
      <point x="295" y="625"/>
      <point x="296" y="592"/>
      <point x="296" y="456" type="curve" smooth="yes"/>
      <point x="296" y="219" type="line" smooth="yes"/>
      <point x="296" y="138"/>
      <point x="295" y="28"/>
    </contour>
  </outline>
</glyph>
